<svg width="317" height="193" viewBox="0 0 317 193" fill="none" xmlns="http://www.w3.org/2000/svg">
<path d="M0.997794 17.6502L0 17.6919L0.978366 34.968L1.97616 34.9263L0.997794 17.6502Z" fill="#407BFF"/>
<path d="M2.31128 40.7529L1.31348 40.7947L1.79531 49.2856L2.79312 49.2438L2.31128 40.7529Z" fill="#407BFF"/>
<path d="M315.193 193H15.1274C14.1814 193 13.4025 192.362 13.3565 191.551L2.59245 1.59729C2.54345 0.727758 3.35045 0 4.36345 0H304.429C305.375 0 306.154 0.637536 306.2 1.4495L316.964 191.404C317.013 192.272 316.206 193 315.193 193Z" fill="#407BFF"/>
<path opacity="0.8" d="M16.8086 188.433L6.39763 4.71447C6.34863 3.84495 7.15562 3.11719 8.16862 3.11719H300.98C301.926 3.11719 302.705 3.75473 302.751 4.56669L313.161 188.285C313.21 189.155 312.403 189.883 311.39 189.883H18.5786C17.6336 189.883 16.8536 189.245 16.8086 188.433Z" fill="white"/>
<path d="M90.3538 179.617C89.8738 179.617 89.4728 179.292 89.4488 178.875L80.1178 14.2012C80.0938 13.7716 80.4798 13.4056 80.9798 13.385C81.4608 13.3669 81.9048 13.6952 81.9298 14.1256L91.2608 178.8C91.2848 179.229 90.8988 179.595 90.3988 179.616C90.3838 179.616 90.3678 179.617 90.3538 179.617Z" fill="white"/>
<path d="M238.533 179.617C238.053 179.617 237.652 179.292 237.628 178.875L228.296 14.2012C228.272 13.7716 228.658 13.4056 229.158 13.385C229.632 13.3669 230.083 13.6952 230.108 14.1256L239.44 178.8C239.464 179.229 239.078 179.595 238.578 179.616C238.564 179.616 238.548 179.617 238.533 179.617Z" fill="white"/>
<path d="M164.444 179.617C163.964 179.617 163.563 179.292 163.539 178.875L154.208 14.2012C154.184 13.7716 154.569 13.4056 155.07 13.385C155.564 13.3669 155.995 13.6952 156.02 14.1256L165.351 178.8C165.375 179.229 164.989 179.595 164.489 179.616C164.474 179.616 164.458 179.617 164.444 179.617Z" fill="white"/>
<path d="M295.101 31.1707H16.9666C16.4656 31.1707 16.0596 30.8218 16.0596 30.3914C16.0596 29.9609 16.4656 29.6121 16.9666 29.6121H295.101C295.602 29.6121 296.008 29.9609 296.008 30.3914C296.008 30.8218 295.602 31.1707 295.101 31.1707Z" fill="white"/>
<path d="M25.3447 21.5448C26.6967 21.0903 28.1487 21.1771 29.3987 21.8353C30.4407 22.3834 31.0017 23.5906 32.2647 23.8106C33.6987 24.0598 34.1357 23.0528 35.1437 22.4788C36.4237 21.7502 38.3777 22.0758 39.8067 22.1686C43.5997 22.4144 47.3897 22.6953 51.1747 23.0124C54.9097 23.3243 58.6947 23.8742 62.4237 23.2444C63.7107 23.027 63.1657 21.3369 61.8817 21.5534C58.0627 22.1979 54.0117 21.4899 50.1867 21.1771C46.3417 20.8618 42.4907 20.5559 38.6357 20.3411C37.3257 20.268 35.9517 20.2552 34.7227 20.7054C34.1067 20.9314 33.6267 21.2553 33.1637 21.6651C33.0077 21.8035 32.8427 22.0836 32.5887 22.0466C32.4267 22.0234 32.0347 21.5088 31.9317 21.41C30.1747 19.7182 27.2877 19.0188 24.8017 19.8539C23.5927 20.2603 24.1197 21.9564 25.3447 21.5448Z" fill="white"/>
<path d="M92.8646 24.1234C94.3826 23.1379 96.6706 21.8371 97.9296 23.7952C98.5586 24.7739 99.1656 25.9527 100.735 25.7465C102.241 25.5489 103.347 23.8665 104.449 23.07C106.091 21.8826 107.748 21.5269 109.662 22.4918C111.307 23.3209 112.749 24.1759 114.687 24.4087C116.468 24.6226 118.113 24.3168 119.747 23.7084C120.683 23.3596 121.631 22.9266 122.673 22.8956C123.758 22.8638 124.852 23.1886 125.936 23.2659C128.261 23.4326 130.598 23.0537 132.874 22.6903C134.164 22.4849 133.617 20.7948 132.332 20.9993C129.809 21.4014 127.346 21.7288 124.789 21.3722C123.846 21.2408 122.96 21.0792 121.998 21.1961C121.102 21.3052 120.285 21.5991 119.463 21.9084C117.368 22.6954 115.347 23.0726 113.155 22.2409C111.46 21.5982 110.137 20.403 108.24 20.1633C106.628 19.9588 105.092 20.4778 103.803 21.2863C103.064 21.7503 102.397 22.2882 101.763 22.8527C101.473 23.1104 101.197 23.4653 100.865 23.6792C100.372 23.9971 100.324 23.9645 100.031 23.4954C99.2956 22.3165 98.5996 21.3559 96.9586 21.0732C95.0106 20.7381 93.3266 21.642 91.8376 22.6086C90.7996 23.2814 91.8156 24.8039 92.8646 24.1234Z" fill="white"/>
<path d="M169.491 23.6388C170.679 23.1568 171.886 22.7186 173.123 22.3388C174.302 21.977 175.669 21.4598 176.935 21.44C178.084 21.422 179.099 22.0106 180.198 22.2108C181.069 22.3697 181.911 22.3096 182.721 21.9891C183.44 21.7047 184.173 21.0121 184.961 20.903C185.855 20.7793 186.6 21.6729 187.362 21.9771C188.146 22.2898 188.989 22.3018 189.832 22.2202C190.605 22.1455 191.741 21.8 192.456 22.1953C193.122 22.563 193.323 23.3638 194.044 23.7341C194.67 24.0564 195.449 24.0839 196.102 23.8063C196.823 23.5004 197.218 22.9222 197.814 22.4926C198.694 21.8593 199.72 22.2108 200.725 22.4161C201.655 22.606 202.556 22.7503 203.512 22.6412C204.566 22.5209 205.782 21.947 206.85 22.1291C208.601 22.4281 209.513 24.028 211.475 23.2031C212.654 22.7074 211.621 21.1943 210.445 21.6892C209.949 21.898 208.498 20.7982 208.015 20.6238C207.135 20.3067 206.241 20.3222 205.318 20.482C204.18 20.6788 203.195 21.0388 202.012 20.8712C201.059 20.7363 200.147 20.4253 199.175 20.3755C198.307 20.3308 197.502 20.4958 196.799 20.9426C196.404 21.1943 195.563 22.2975 195.056 22.2073C194.823 22.1661 194.459 21.5096 194.311 21.3498C194.074 21.0929 193.814 20.8549 193.485 20.6805C192.788 20.3119 191.969 20.2492 191.171 20.3076C190.305 20.3712 189.317 20.6762 188.456 20.4648C187.591 20.2517 187.025 19.5291 186.167 19.2731C184.229 18.6948 183.296 20.0644 181.639 20.482C180.565 20.7527 179.464 20.1022 178.456 19.8685C177.372 19.6168 176.341 19.6829 175.26 19.9132C172.918 20.4133 170.636 21.2398 168.459 22.1223C167.274 22.606 168.308 24.1182 169.491 23.6388Z" fill="white"/>
<path d="M237.61 23.1715C239.425 22.7264 241.24 22.2814 243.056 21.8363C243.918 21.6249 244.785 21.3637 245.66 21.1979C246.653 21.0097 247.25 21.301 248.137 21.5862C249.588 22.0537 251.181 22.0476 252.709 22.0356C254.524 22.021 256.339 21.997 258.154 21.9772C265.578 21.8981 273.003 21.8191 280.427 21.74C281.739 21.7263 281.743 19.9726 280.427 19.9864C272.838 20.0671 265.248 20.1479 257.659 20.2287C255.87 20.2476 254.08 20.2802 252.291 20.2854C251.412 20.288 250.511 20.2957 249.646 20.1385C248.827 19.9907 248.138 19.5954 247.342 19.4064C245.856 19.0541 244.16 19.7406 242.751 20.086C240.857 20.5509 238.963 21.0149 237.069 21.4797C235.807 21.7899 236.343 23.4825 237.61 23.1715Z" fill="white"/>
<path d="M47.4517 113.415C47.2086 110.5 49.5091 108 52.4344 108H105.297C107.939 108 110.126 110.056 110.287 112.694L111.175 127.203C111.351 130.08 109.066 132.509 106.185 132.509H53.6447C51.0444 132.509 48.8782 130.516 48.662 127.924L47.4517 113.415Z" fill="#77B3FC"/>
<path d="M52.6174 122.721C52.5448 122.125 53.0091 121.6 53.6089 121.6L106.444 121.537C106.929 121.536 107.344 121.883 107.429 122.36L107.789 124.36C107.899 124.973 107.428 125.536 106.806 125.537L53.8548 125.599C53.3488 125.6 52.9222 125.223 52.861 124.72L52.6174 122.721Z" fill="#F3F8FF"/>
<path d="M52.1377 115.656C52.0645 115.06 52.5289 114.535 53.1291 114.534L81.1885 114.501C81.6808 114.501 82.1003 114.859 82.1773 115.345L82.4939 117.345C82.59 117.951 82.1216 118.5 81.5074 118.501L53.3771 118.534C52.8716 118.534 52.4451 118.157 52.3835 117.656L52.1377 115.656Z" fill="#F3F8FF"/>
<path d="M14.4517 50.4156C14.2086 47.5004 16.5091 45 19.4344 45H72.2967C74.9395 45 77.1259 47.0567 77.2873 49.6946L78.1753 64.2036C78.3513 67.0798 76.0662 69.509 73.1846 69.509H20.6447C18.0444 69.509 15.8782 67.516 15.662 64.9247L14.4517 50.4156Z" fill="#407BFF"/>
<path d="M19.6174 59.721C19.5448 59.1256 20.0091 58.6007 20.6089 58.6L73.4441 58.5373C73.9286 58.5367 74.3438 58.8836 74.4294 59.3604L74.7886 61.36C74.8987 61.9728 74.4281 62.5361 73.8055 62.5369L20.8548 62.5997C20.3488 62.6003 19.9222 62.2229 19.861 61.7207L19.6174 59.721Z" fill="#9FBDFF"/>
<path d="M19.1377 52.6561C19.0645 52.0603 19.5289 51.5348 20.1291 51.5341L48.1885 51.5017C48.6808 51.5011 49.1003 51.859 49.1773 52.3453L49.4939 54.3449C49.59 54.9516 49.1216 55.5006 48.5074 55.5013L20.3771 55.5338C19.8716 55.5344 19.4451 55.1576 19.3835 54.6558L19.1377 52.6561Z" fill="#9FBDFF"/>
<path d="M89.4517 50.4156C89.2086 47.5004 91.5091 45 94.4344 45H147.297C149.939 45 152.126 47.0567 152.287 49.6946L153.175 64.2036C153.351 67.0798 151.066 69.509 148.185 69.509H95.6447C93.0444 69.509 90.8782 67.516 90.662 64.9247L89.4517 50.4156Z" fill="#407BFF"/>
<path d="M94.6174 59.721C94.5448 59.1256 95.0091 58.6007 95.6089 58.6L148.444 58.5373C148.929 58.5367 149.344 58.8836 149.429 59.3604L149.789 61.36C149.899 61.9728 149.428 62.5361 148.806 62.5369L95.8548 62.5997C95.3488 62.6003 94.9222 62.2229 94.861 61.7207L94.6174 59.721Z" fill="#9FBDFF"/>
<path d="M94.1377 52.6561C94.0645 52.0603 94.5289 51.5348 95.1291 51.5341L123.188 51.5017C123.681 51.5011 124.1 51.859 124.177 52.3453L124.494 54.3449C124.59 54.9516 124.122 55.5006 123.507 55.5013L95.3771 55.5338C94.8716 55.5344 94.4451 55.1576 94.3835 54.6558L94.1377 52.6561Z" fill="#9FBDFF"/>
<path d="M91.4517 80.4156C91.2086 77.5004 93.5091 75 96.4344 75H149.297C151.939 75 154.126 77.0567 154.287 79.6946L155.175 94.2036C155.351 97.0798 153.066 99.509 150.185 99.509H97.6447C95.0444 99.509 92.8782 97.516 92.662 94.9247L91.4517 80.4156Z" fill="#407BFF"/>
<path d="M96.6174 89.721C96.5448 89.1256 97.0091 88.6007 97.6089 88.6L150.444 88.5373C150.929 88.5367 151.344 88.8836 151.429 89.3604L151.789 91.36C151.899 91.9728 151.428 92.5361 150.806 92.5369L97.8548 92.5997C97.3488 92.6003 96.9222 92.2229 96.861 91.7207L96.6174 89.721Z" fill="#9FBDFF"/>
<path d="M96.1377 82.6561C96.0645 82.0603 96.5289 81.5348 97.1291 81.5341L125.188 81.5017C125.681 81.5011 126.1 81.859 126.177 82.3453L126.494 84.3449C126.59 84.9516 126.122 85.5006 125.507 85.5013L97.3771 85.5338C96.8716 85.5344 96.4451 85.1576 96.3835 84.6558L96.1377 82.6561Z" fill="#9FBDFF"/>
<path d="M162.452 50.4156C162.209 47.5004 164.509 45 167.434 45H220.297C222.939 45 225.126 47.0567 225.287 49.6946L226.175 64.2036C226.351 67.0798 224.066 69.509 221.185 69.509H168.645C166.044 69.509 163.878 67.516 163.662 64.9247L162.452 50.4156Z" fill="#407BFF"/>
<path d="M167.617 59.721C167.545 59.1256 168.009 58.6007 168.609 58.6L221.444 58.5373C221.929 58.5367 222.344 58.8836 222.429 59.3604L222.789 61.36C222.899 61.9728 222.428 62.5361 221.806 62.5369L168.855 62.5997C168.349 62.6003 167.922 62.2229 167.861 61.7207L167.617 59.721Z" fill="#9FBDFF"/>
<path d="M167.138 52.6561C167.065 52.0603 167.529 51.5348 168.129 51.5341L196.188 51.5017C196.681 51.5011 197.1 51.859 197.177 52.3453L197.494 54.3449C197.59 54.9516 197.122 55.5006 196.507 55.5013L168.377 55.5338C167.872 55.5344 167.445 55.1576 167.383 54.6558L167.138 52.6561Z" fill="#9FBDFF"/>
<path d="M166.452 109.434C166.209 106.518 168.509 104.018 171.434 104.018H224.297C226.939 104.018 229.126 106.075 229.287 108.713L230.175 123.222C230.351 126.098 228.066 128.527 225.185 128.527H172.645C170.044 128.527 167.878 126.534 167.662 123.943L166.452 109.434Z" fill="#407BFF"/>
<path d="M171.617 118.739C171.545 118.144 172.009 117.619 172.609 117.618L225.444 117.555C225.929 117.555 226.344 117.902 226.429 118.378L226.789 120.378C226.899 120.991 226.428 121.554 225.806 121.555L172.855 121.618C172.349 121.618 171.922 121.241 171.861 120.739L171.617 118.739Z" fill="#9FBDFF"/>
<path d="M171.138 111.674C171.065 111.078 171.529 110.553 172.129 110.552L200.188 110.52C200.681 110.519 201.1 110.877 201.177 111.363L201.494 113.363C201.59 113.97 201.122 114.519 200.507 114.519L172.377 114.552C171.872 114.552 171.445 114.176 171.383 113.674L171.138 111.674Z" fill="#9FBDFF"/>
<path d="M164.452 79.9247C164.209 77.0094 166.509 74.509 169.434 74.509H222.297C224.939 74.509 227.126 76.5657 227.287 79.2036L228.175 93.7126C228.351 96.5888 226.066 99.0181 223.185 99.0181H170.645C168.044 99.0181 165.878 97.025 165.662 94.4337L164.452 79.9247Z" fill="#407BFF"/>
<path d="M169.617 89.23C169.545 88.6346 170.009 88.1097 170.609 88.109L223.444 88.0463C223.929 88.0458 224.344 88.3926 224.429 88.8695L224.789 90.869C224.899 91.4818 224.428 92.0452 223.806 92.0459L170.855 92.1087C170.349 92.1093 169.922 91.7319 169.861 91.2297L169.617 89.23Z" fill="#9FBDFF"/>
<path d="M169.138 82.1651C169.065 81.5694 169.529 81.0438 170.129 81.0431L198.188 81.0107C198.681 81.0101 199.1 81.368 199.177 81.8543L199.494 83.854C199.59 84.4606 199.122 85.0096 198.507 85.0104L170.377 85.0428C169.872 85.0434 169.445 84.6666 169.383 84.1648L169.138 82.1651Z" fill="#9FBDFF"/>
<path d="M236.452 50.4156C236.209 47.5004 238.509 45 241.434 45H294.297C296.939 45 299.126 47.0567 299.287 49.6946L300.175 64.2036C300.351 67.0798 298.066 69.509 295.185 69.509H242.645C240.044 69.509 237.878 67.516 237.662 64.9247L236.452 50.4156Z" fill="#407BFF"/>
<path d="M241.617 59.721C241.545 59.1256 242.009 58.6007 242.609 58.6L295.444 58.5373C295.929 58.5367 296.344 58.8836 296.429 59.3604L296.789 61.36C296.899 61.9728 296.428 62.5361 295.806 62.5369L242.855 62.5997C242.349 62.6003 241.922 62.2229 241.861 61.7207L241.617 59.721Z" fill="#9FBDFF"/>
<path d="M241.138 52.6561C241.065 52.0603 241.529 51.5348 242.129 51.5341L270.188 51.5017C270.681 51.5011 271.1 51.859 271.177 52.3453L271.494 54.3449C271.59 54.9516 271.122 55.5006 270.507 55.5013L242.377 55.5338C241.872 55.5344 241.445 55.1576 241.383 54.6558L241.138 52.6561Z" fill="#9FBDFF"/>
<path d="M134 137.443L124.686 144.268L135.254 148.921L134 137.443ZM50.9696 146.692L51.504 145.846L50.9696 146.692ZM47.0839 118.022C46.6856 117.992 46.292 117.993 45.9049 118.025L46.07 120.018C46.3498 119.995 46.6365 119.994 46.9292 120.016L47.0839 118.022ZM43.6241 118.599C42.9138 118.907 42.2543 119.326 41.6566 119.835L42.9546 121.357C43.4105 120.968 43.9023 120.658 44.42 120.434L43.6241 118.599ZM40.1241 121.527C39.7036 122.123 39.3388 122.779 39.0359 123.484L40.8735 124.274C41.1242 123.69 41.422 123.157 41.7582 122.68L40.1241 121.527ZM38.3522 125.588C38.1924 126.282 38.0847 127.007 38.0338 127.757L40.0292 127.893C40.0731 127.245 40.1657 126.625 40.3011 126.037L38.3522 125.588ZM38.0447 129.935C38.0978 130.637 38.1989 131.353 38.3513 132.08L40.3088 131.67C40.1741 131.027 40.0854 130.397 40.039 129.784L38.0447 129.935ZM38.9218 134.161C39.1451 134.819 39.411 135.482 39.7217 136.147L41.5336 135.3C41.2535 134.701 41.0152 134.106 40.8159 133.518L38.9218 134.161ZM40.7274 138.039C41.0805 138.629 41.4705 139.219 41.8991 139.806L43.5144 138.627C43.1214 138.089 42.7653 137.55 42.4443 137.013L40.7274 138.039ZM43.2224 141.465C43.6726 141.984 44.1547 142.499 44.6699 143.008L46.0759 141.586C45.5962 141.112 45.149 140.634 44.7329 140.154L43.2224 141.465ZM46.2138 144.431C46.7303 144.875 47.2739 145.314 47.8455 145.747L49.0524 144.152C48.5134 143.744 48.0024 143.331 47.5183 142.915L46.2138 144.431ZM49.5495 146.96C49.8386 147.154 50.1337 147.346 50.4351 147.537L51.504 145.846C51.2176 145.665 50.9375 145.483 50.6635 145.299L49.5495 146.96ZM50.4351 147.537C50.7199 147.717 51.0083 147.895 51.3001 148.072L52.3359 146.361C52.055 146.191 51.7776 146.019 51.504 145.846L50.4351 147.537ZM53.0802 149.105C53.6715 149.433 54.2749 149.755 54.8898 150.07L55.802 148.291C55.2066 147.985 54.6231 147.674 54.0521 147.357L53.0802 149.105ZM56.7217 150.973C57.3328 151.263 57.9537 151.545 58.5839 151.821L59.3865 149.99C58.7739 149.721 58.1708 149.446 57.5778 149.166L56.7217 150.973ZM60.4729 152.618C61.0979 152.871 61.7309 153.118 62.3712 153.358L63.0738 151.486C62.4496 151.252 61.8329 151.011 61.2243 150.764L60.4729 152.618ZM64.2905 154.051C64.9308 154.273 65.5776 154.489 66.2302 154.697L66.8395 152.792C66.202 152.588 65.5706 152.378 64.9458 152.161L64.2905 154.051ZM68.178 155.295C68.8271 155.486 69.4812 155.67 70.14 155.848L70.6602 153.916C70.0161 153.743 69.3767 153.563 68.7424 153.376L68.178 155.295ZM72.1172 156.356C72.7745 156.518 73.4357 156.672 74.1003 156.82L74.5339 154.867C73.8837 154.723 73.2368 154.572 72.5939 154.414L72.1172 156.356ZM76.0947 157.24C76.7603 157.372 77.4287 157.498 78.0995 157.616L78.4472 155.647C77.7907 155.531 77.1366 155.408 76.4853 155.278L76.0947 157.24ZM80.109 157.948C80.7801 158.052 81.453 158.148 82.1273 158.237L82.3881 156.254C81.7285 156.167 81.0701 156.073 80.4135 155.972L80.109 157.948ZM84.1512 158.48C84.8269 158.554 85.5036 158.62 86.1806 158.678L86.3524 156.686C85.6905 156.628 85.0288 156.564 84.3679 156.492L84.1512 158.48ZM88.2143 158.83C88.8934 158.873 89.5723 158.908 90.2507 158.934L90.3295 156.936C89.6671 156.91 89.0038 156.876 88.3402 156.834L88.2143 158.83ZM92.2918 158.99C92.9732 159.001 93.6535 159.003 94.3321 158.996L94.3126 156.996C93.6509 157.003 92.9872 157.001 92.3222 156.991L92.2918 158.99ZM96.3733 158.95C97.0565 158.926 97.7375 158.892 98.4159 158.85L98.2908 156.854C97.6307 156.895 96.9676 156.928 96.3021 156.951L96.3733 158.95ZM100.452 158.694C101.134 158.632 101.812 158.56 102.487 158.479L102.247 156.493C101.593 156.572 100.934 156.642 100.271 156.702L100.452 158.694ZM104.517 158.202C105.195 158.099 105.868 157.985 106.535 157.861L106.17 155.895C105.524 156.015 104.873 156.125 104.216 156.225L104.517 158.202ZM108.544 157.452C109.217 157.303 109.883 157.143 110.543 156.971L110.038 155.035C109.403 155.201 108.76 155.356 108.111 155.5L108.544 157.452ZM112.519 156.414C113.178 156.214 113.83 156.002 114.473 155.778L113.814 153.89C113.198 154.105 112.573 154.308 111.94 154.5L112.519 156.414ZM116.407 155.055C117.049 154.798 117.682 154.528 118.304 154.244L117.474 152.424C116.881 152.695 116.278 152.953 115.664 153.198L116.407 155.055ZM120.16 153.341C120.775 153.021 121.379 152.687 121.971 152.338L120.955 150.615C120.395 150.946 119.823 151.262 119.239 151.565L120.16 153.341ZM123.728 151.233C124.304 150.846 124.867 150.444 125.416 150.025L124.203 148.435C123.687 148.829 123.157 149.207 122.614 149.572L123.728 151.233ZM127.027 148.712C127.552 148.256 128.06 147.783 128.552 147.293L127.141 145.876C126.681 146.334 126.205 146.776 125.714 147.204L127.027 148.712ZM129.977 145.772C130.433 145.25 130.872 144.71 131.292 144.154L129.696 142.949C129.304 143.467 128.896 143.97 128.471 144.456L129.977 145.772ZM132.489 142.443C132.865 141.862 133.223 141.264 133.561 140.649L131.808 139.686C131.494 140.258 131.161 140.815 130.811 141.356L132.489 142.443Z" fill="#FF7A7A"/>
</svg>
