<svg width="195" height="122" viewBox="0 0 195 122" fill="none" xmlns="http://www.w3.org/2000/svg">
<path d="M56.8619 63.64C58.3239 69.357 59.7499 75.129 61.1509 80.876C62.5539 86.623 63.9229 92.387 65.3679 98.066L66.4579 102.301L67.0209 104.384L67.3069 105.419L67.3429 105.548L67.3609 105.613C67.3689 105.639 67.3309 105.52 67.3149 105.482C67.2279 105.248 67.1069 105.026 67.0289 104.887C66.9849 104.81 66.9269 104.726 66.8819 104.663C66.8469 104.61 66.8089 104.559 66.7689 104.509C66.6729 104.397 66.6309 104.347 66.5719 104.29C66.3569 104.088 66.3289 104.12 66.3779 104.173C66.4229 104.232 66.5779 104.344 66.7409 104.463C67.0939 104.706 67.5799 104.982 68.1189 105.245C69.2009 105.78 70.4629 106.267 71.7459 106.766C76.9519 108.695 82.6929 110.334 88.2729 112.111L87.3949 118.49C84.2799 118.53 81.2599 118.393 78.1889 118.127C75.1239 117.856 72.0599 117.468 68.9159 116.832C67.3349 116.523 65.7509 116.122 64.0599 115.572C63.2129 115.293 62.3349 114.967 61.3729 114.513C60.8819 114.277 60.3889 114.021 59.8239 113.652C59.2629 113.28 58.6489 112.846 57.9329 112.093C57.7509 111.896 57.5809 111.711 57.3819 111.444L57.1049 111.064C57.0099 110.923 56.9089 110.756 56.8179 110.599C56.6389 110.303 56.4509 109.907 56.2959 109.5L56.1279 109.034L55.7439 107.939L54.9929 105.755C54.5069 104.304 54.0229 102.862 53.5819 101.418C51.7679 95.644 50.1269 89.886 48.5629 84.102C47.0079 78.314 45.5609 72.53 44.2239 66.674L56.8619 63.64Z" fill="#FFC3BD"/>
<path d="M42.798 56.724C48.287 50.601 56.994 54.88 60.659 68.576C62.442 75.24 61.882 78.722 61.882 78.722L42.937 84.555C38.87 75.559 35.328 65.057 42.798 56.724Z" fill="#407BFF"/>
<g opacity="0.2">
<path d="M42.798 56.724C48.287 50.601 56.994 54.88 60.659 68.576C62.442 75.24 61.882 78.722 61.882 78.722L42.937 84.555C38.87 75.559 35.328 65.057 42.798 56.724Z" fill="black"/>
</g>
<path d="M98.1541 109.503L96.4531 108.981C95.4251 108.665 94.3421 108.567 93.2731 108.693L89.6191 109.123C87.1701 109.744 85.1131 111.32 84.0501 113.391L82.8101 115.806C83.4321 120.273 92.4741 118.837 92.4741 118.837H100.978L100.697 112.781C100.626 111.261 99.6091 109.949 98.1541 109.503Z" fill="#FFC3BD"/>
<path d="M44.0699 50.788L33.3959 47.743L19.6679 47.095C15.3849 46.893 11.5149 49.582 10.1779 53.655C7.55989 61.63 5.1529 73.184 3.3989 83.154C1.4319 94.334 0.407895 105.918 0.191895 121.19H51.4239C52.4679 92.734 55.8159 78.836 57.7989 68.766C59.0099 62.617 55.9109 56.429 50.2519 53.733L44.0699 50.788Z" fill="#407BFF"/>
<path d="M29.7549 52.792C31.0569 56.135 36.0919 63.266 41.9439 66.056C45.1919 63.71 45.8879 58.584 46.3819 56.181L29.7549 52.792Z" fill="white"/>
<path d="M46.3828 56.181C46.6638 54.812 46.6858 53.408 45.9408 52.243C45.1098 50.943 45.3188 49.453 46.1488 47.922C46.6898 46.923 48.1758 44.792 48.5978 44.59L41.8868 36.737L36.4148 30.4041C35.9468 36.3301 35.4878 43.678 30.8118 48.282C29.1608 49.907 28.8238 50.4011 29.7548 52.7921C31.0568 56.1351 35.7068 60.794 41.5598 63.584C44.8078 61.238 45.8888 58.583 46.3828 56.181Z" fill="#FFC3BD"/>
<path opacity="0.2" d="M46.537 43.245L42.753 37.094C42.676 37.247 42.586 37.424 42.496 37.601C42.2 38.261 41.904 39.086 41.685 39.957C40.99 42.69 43.307 46.59 45.855 48.452C45.958 48.275 46.048 48.098 46.151 47.922C46.627 47.026 47.981 45.071 48.445 44.694C48.496 44.647 48.548 44.611 48.599 44.588L46.537 43.245Z" fill="black"/>
<path d="M59.7839 28.542C60.6599 34.213 68.7749 19.621 64.2419 16.417C58.7009 12.5 58.1179 17.75 59.7839 28.542Z" fill="#263238"/>
<path d="M36.673 21.143C36.154 30.351 35.364 35.705 39.59 41.023C45.947 49.022 58.162 46.384 61.526 37.568C64.554 29.633 64.894 15.908 56.046 11.051C47.33 6.265 37.193 11.935 36.673 21.143Z" fill="#FFC3BD"/>
<path d="M54.8188 15.611C54.8188 15.611 60.7118 21.389 64.9068 19C69.0948 16.614 69.9628 10.424 64.9068 5.00002C62.4768 2.39302 58.7978 -0.158975 51.5758 0.0420252C52.1038 0.736025 53.6178 1.29203 53.6178 1.29203C53.6178 1.29203 44.4648 -0.239975 38.0758 2.38903C38.0758 2.38903 38.9088 3.66702 40.1178 4.25002C33.9098 3.77802 27.8738 6.20801 32.1628 12.083C26.5348 12.625 25.2708 19.833 28.2708 24.583C31.2708 29.333 31.7988 32.889 35.8128 35.05C35.8538 28.583 37.2988 27.055 37.2988 27.055C40.1878 25.833 43.5208 19.666 42.8548 16.555C48.9088 19 55.4988 19.819 54.8188 15.611Z" fill="#263238"/>
<path d="M33.52 11.833C31.76 10.381 30.242 9.06202 29.126 6.27802C28.409 9.50002 31.742 13.167 31.742 13.167L33.52 11.833Z" fill="#263238"/>
<path d="M32.0699 26.174C32.1229 28.432 33.1379 30.512 34.4049 31.843C36.3099 33.846 38.9149 32.145 39.3669 29.574C39.7739 27.26 38.7929 23.729 36.4079 22.687C34.0579 21.662 32.0099 23.591 32.0699 26.174Z" fill="#FFC3BD"/>
<path d="M51.7519 25.894C51.5989 26.652 51.8729 27.361 52.3649 27.478C52.8559 27.595 53.3789 27.076 53.5319 26.318C53.6849 25.56 53.4109 24.851 52.9189 24.734C52.4269 24.617 51.9049 25.136 51.7519 25.894Z" fill="#263238"/>
<path d="M60.247 27.917C60.094 28.675 60.368 29.384 60.86 29.501C61.351 29.618 61.874 29.099 62.027 28.341C62.18 27.583 61.906 26.874 61.414 26.757C60.922 26.64 60.4 27.16 60.247 27.917Z" fill="#263238"/>
<path d="M57.4168 27.861C57.4168 27.861 57.8468 31.968 58.9368 34.224C57.5398 34.928 55.7798 33.862 55.7798 33.862L57.4168 27.861Z" fill="#ED847E"/>
<path d="M54.2069 38.108C51.2329 37.458 49.9759 35.24 49.9199 35.138C49.8589 35.029 49.8989 34.891 50.0089 34.83C50.1189 34.769 50.2559 34.809 50.3169 34.919C50.3309 34.944 51.7599 37.471 55.1409 37.796C55.2669 37.807 55.3569 37.919 55.3449 38.044C55.3329 38.169 55.2219 38.26 55.0969 38.248C54.7839 38.217 54.4879 38.169 54.2069 38.108Z" fill="#263238"/>
<path d="M50.6329 22.829C50.5639 22.802 50.4999 22.757 50.4489 22.696C50.2899 22.502 50.3169 22.216 50.5109 22.057C52.4259 20.48 54.4269 21.134 54.5099 21.162C54.7409 21.216 54.8749 21.499 54.7939 21.737C54.7129 21.974 54.4569 22.101 54.2189 22.021C54.1359 21.994 52.5899 21.518 51.0869 22.757C50.9559 22.866 50.7819 22.888 50.6329 22.829Z" fill="#263238"/>
<path d="M61.3029 23.014C61.2859 22.942 61.2869 22.864 61.3079 22.787C61.3759 22.546 61.6269 22.405 61.8679 22.474C64.2549 23.149 64.8579 25.166 64.8819 25.251C64.9689 25.472 64.8129 25.743 64.5709 25.812C64.3299 25.881 64.0789 25.742 64.0099 25.502C63.9849 25.419 63.4949 23.877 61.6209 23.347C61.4569 23.301 61.3399 23.169 61.3029 23.014Z" fill="#263238"/>
<path d="M21.8139 60.8761C19.8879 66.3571 17.9699 72.072 16.2549 77.665C15.3889 80.471 14.6019 83.281 13.8869 86.055C13.1969 88.821 12.6049 91.6001 12.2929 94.1261C12.2629 94.4321 12.2139 94.759 12.1979 95.049L12.1659 95.491C12.1549 95.629 12.1419 95.843 12.1399 95.774C12.1109 95.758 12.0629 95.826 12.1169 96.036C12.2039 96.446 12.6319 97.274 13.3259 98.096C14.7269 99.773 16.8579 101.537 19.1249 103.118C23.6899 106.329 28.9999 109.188 34.1789 111.863L32.1239 117.966C28.9479 117.291 25.9829 116.422 22.9659 115.387C19.9649 114.352 17.0009 113.139 14.0529 111.658C11.1239 110.12 8.17888 108.44 5.34488 105.745C3.94788 104.378 2.49188 102.753 1.42488 100.343C0.899879 99.15 0.511879 97.714 0.425879 96.181C0.397879 95.733 0.404877 95.568 0.400877 95.326L0.39588 94.629C0.38988 94.16 0.416878 93.731 0.426878 93.278C0.567878 89.745 1.08387 86.535 1.68287 83.37C2.27887 80.213 3.03088 77.145 3.83488 74.112C5.47788 68.032 7.37187 62.205 9.64787 56.29L21.8139 60.8761Z" fill="#FFC3BD"/>
<path d="M19.0198 47.089C28.7988 47.001 30.6498 54.607 25.3288 66.674C22.5458 72.986 17.8888 79.001 17.8888 79.001L1.71582 70.409C3.88382 60.776 7.82882 47.189 19.0198 47.089Z" fill="#407BFF"/>
<path d="M45.9969 110.876L42.4189 108.916C41.8339 108.596 41.1619 108.472 40.5019 108.563L36.2039 109.157C33.3129 109.46 31.2099 111.671 29.6349 113.592L27.7979 115.832C27.7099 120.349 39.1309 119.287 39.1309 119.287L49.1219 119.161L48.8089 115.221C48.6629 113.392 47.6059 111.758 45.9969 110.876Z" fill="#FFC3BD"/>
<path d="M190.443 65H116.443C113.937 65 111.55 67.05 111.137 69.555L103.418 116.444C103.005 118.95 104.718 121 107.224 121H181.224C183.73 121 186.117 118.95 186.53 116.444L194.25 69.555C194.661 67.05 192.949 65 190.443 65Z" fill="#263238"/>
<path d="M143.5 117.944H73.833C73.375 117.944 73 118.319 73 118.777V120.166C73 120.624 73.375 120.999 73.833 120.999H143.5C143.958 120.999 144.333 120.624 144.333 120.166V118.777C144.334 118.319 143.959 117.944 143.5 117.944Z" fill="#263238"/>
<path opacity="0.2" d="M190.443 65H118.11C115.605 65 113.217 67.05 112.805 69.555L105.085 116.444C104.672 118.95 106.385 121 108.891 121H181.224C183.73 121 186.117 118.95 186.53 116.444L194.25 69.555C194.661 67.05 192.949 65 190.443 65Z" fill="white"/>
</svg>
