<svg width="376" height="283" viewBox="0 0 376 283" fill="none" xmlns="http://www.w3.org/2000/svg">
<path d="M369.41 0.890015H53.96C50.5524 0.890015 47.79 3.65242 47.79 7.06001V211.92C47.79 215.328 50.5524 218.09 53.96 218.09H369.41C372.818 218.09 375.58 215.328 375.58 211.92V7.06001C375.58 3.65242 372.818 0.890015 369.41 0.890015Z" fill="#263238"/>
<path d="M255.86 277.36H182.21L169.49 148.44H243.14L255.86 277.36Z" fill="#263238"/>
<path d="M253.89 277.36H180.24L167.51 148.44H241.16L253.89 277.36Z" fill="#407BFF"/>
<path d="M270.26 281.7H176L177 277.36H266.83C267.362 277.36 267.886 277.481 268.365 277.714C268.843 277.946 269.262 278.284 269.592 278.701C269.921 279.119 270.151 279.606 270.265 280.125C270.379 280.644 270.374 281.183 270.25 281.7H270.26Z" fill="#263238"/>
<path d="M254.28 281.7H160C160.295 280.463 160.998 279.362 161.996 278.575C162.994 277.787 164.229 277.359 165.5 277.36H255.32L254.28 281.7Z" fill="#407BFF"/>
<path d="M262.13 277.36H252.7C252.167 277.359 251.642 277.479 251.162 277.71C250.682 277.942 250.262 278.28 249.931 278.697C249.601 279.115 249.37 279.603 249.256 280.123C249.141 280.643 249.146 281.182 249.27 281.7H263.16" fill="#263238"/>
<path opacity="0.2" d="M241.16 148.43H167.51L175 224.26H248.65L241.16 148.43Z" fill="black"/>
<path d="M367.6 0.890015H52.15C48.7424 0.890015 45.98 3.65242 45.98 7.06001V211.92C45.98 215.328 48.7424 218.09 52.15 218.09H367.6C371.008 218.09 373.77 215.328 373.77 211.92V7.06001C373.77 3.65242 371.008 0.890015 367.6 0.890015Z" fill="#407BFF"/>
<path opacity="0.2" d="M209.88 209.03C213.083 209.03 215.68 206.433 215.68 203.23C215.68 200.027 213.083 197.43 209.88 197.43C206.677 197.43 204.08 200.027 204.08 203.23C204.08 206.433 206.677 209.03 209.88 209.03Z" fill="black"/>
<path opacity="0.9" d="M368.3 13.65H51.2299C49.7829 13.65 48.6099 14.823 48.6099 16.27V184.32C48.6099 185.767 49.7829 186.94 51.2299 186.94H368.3C369.747 186.94 370.92 185.767 370.92 184.32V16.27C370.92 14.823 369.747 13.65 368.3 13.65Z" fill="white"/>
<path d="M218.21 151C210.609 150.243 203.233 147.986 196.51 144.36C190.053 140.872 184.353 136.137 179.74 130.43C175.327 124.95 172.047 118.648 170.09 111.89C168.774 107.339 168.1 102.627 168.09 97.89H178.56L158.21 62.64L137.86 97.89H148.79C149.978 104.863 152.238 111.609 155.49 117.89C159.537 125.696 165.091 132.623 171.83 138.27C178.349 143.722 185.884 147.828 194 150.35C201.82 152.77 210.041 153.62 218.19 152.85C218.405 152.82 218.604 152.72 218.757 152.567C218.91 152.414 219.009 152.215 219.04 152C219.057 151.759 218.98 151.52 218.826 151.333C218.671 151.147 218.45 151.028 218.21 151Z" fill="#407BFF"/>
<path d="M270.94 102.65C269.749 95.677 267.485 88.9305 264.23 82.65C260.18 74.8458 254.627 67.9196 247.89 62.27C241.372 56.8259 233.841 52.727 225.73 50.21C217.911 47.7869 209.69 46.9339 201.54 47.7C201.325 47.7304 201.126 47.8297 200.973 47.983C200.82 48.1364 200.72 48.3353 200.69 48.55C200.673 48.7946 200.753 49.0361 200.912 49.2229C201.07 49.4097 201.296 49.5271 201.54 49.55C209.14 50.3113 216.515 52.5679 223.24 56.19C229.693 59.6879 235.389 64.4291 240 70.14C244.413 75.62 247.693 81.9219 249.65 88.68C250.966 93.2306 251.639 97.9429 251.65 102.68H241.16L261.51 137.93L281.87 102.68L270.94 102.65Z" fill="#407BFF"/>
<g opacity="0.3">
<path d="M115.3 79.47L159.61 13.62H103.95L60.49 78.18L58.65 80.93L48.72 95.69V178.41L58.65 163.65L115.3 79.47Z" fill="white"/>
<path d="M212.19 13.62L155.79 97.43L98.7701 182.16L95.5701 186.91H122.84L155.79 137.97L239.46 13.62H212.19Z" fill="white"/>
</g>
<path d="M98.17 65.4399H12.66C6.66224 65.4399 1.80005 70.3021 1.80005 76.2999V271.78C1.80005 277.778 6.66224 282.64 12.66 282.64H98.17C104.168 282.64 109.03 277.778 109.03 271.78V76.2999C109.03 70.3021 104.168 65.4399 98.17 65.4399Z" fill="#263238"/>
<path d="M96.36 65.4399H10.85C4.85217 65.4399 -0.0100098 70.3021 -0.0100098 76.2999V271.78C-0.0100098 277.778 4.85217 282.64 10.85 282.64H96.36C102.358 282.64 107.22 277.778 107.22 271.78V76.2999C107.22 70.3021 102.358 65.4399 96.36 65.4399Z" fill="#407BFF"/>
<path opacity="0.9" d="M103.12 78.1799H4.08997C2.64298 78.1799 1.46997 79.353 1.46997 80.7999V267.65C1.46997 269.097 2.64298 270.27 4.08997 270.27H103.12C104.567 270.27 105.74 269.097 105.74 267.65V80.7999C105.74 79.353 104.567 78.1799 103.12 78.1799Z" fill="white"/>
<path d="M57.82 196.89C53.9669 196.51 50.2278 195.368 46.82 193.53C43.5601 191.782 40.6808 189.402 38.35 186.53C36.1227 183.763 34.4673 180.582 33.48 177.17C32.824 174.874 32.4875 172.498 32.48 170.11H37.77L27.54 152.29L17.26 170.08H22.78C23.3795 173.604 24.5196 177.014 26.16 180.19C28.2079 184.131 31.0151 187.628 34.42 190.48C37.7104 193.225 41.5094 195.294 45.6 196.57C49.5501 197.793 53.7034 198.221 57.82 197.83C57.9292 197.819 58.031 197.769 58.1077 197.691C58.1845 197.612 58.2312 197.509 58.24 197.4C58.2469 197.339 58.2414 197.277 58.2239 197.218C58.2064 197.159 58.1772 197.104 58.138 197.056C58.0988 197.008 58.0505 196.969 57.9959 196.941C57.9412 196.912 57.8814 196.895 57.82 196.89Z" fill="#407BFF"/>
<path d="M84.4299 172.49C83.8349 168.968 82.6945 165.56 81.0499 162.39C79.0049 158.45 76.2012 154.953 72.7999 152.1C69.5117 149.344 65.7078 147.27 61.6099 146C57.6638 144.774 53.5138 144.342 49.3999 144.73C49.2903 144.743 49.1882 144.792 49.1101 144.87C49.0321 144.948 48.9827 145.05 48.9699 145.16C48.9587 145.286 48.9976 145.411 49.0781 145.508C49.1586 145.606 49.2742 145.667 49.3999 145.68C53.2331 146.054 56.9546 147.182 60.3499 149C63.6079 150.751 66.4866 153.13 68.8199 156C71.0491 158.769 72.7046 161.954 73.6899 165.37C74.3472 167.662 74.6838 170.035 74.6899 172.42H69.3999L79.6799 190.22L89.9999 172.49H84.4299Z" fill="#407BFF"/>
<g opacity="0.3">
<path d="M105.37 79.4699C105.141 79.0768 104.812 78.7507 104.417 78.5244C104.022 78.298 103.575 78.1792 103.12 78.1799H50.57L48.72 80.9299L1.46997 151.14V233.87L48.72 163.65L105.37 79.4699Z" fill="white"/>
<path d="M48.72 182.16L1.46997 252.37V267.65C1.46997 268.345 1.74601 269.011 2.23735 269.503C2.7287 269.994 3.3951 270.27 4.08997 270.27H16.7L72.8 186.91L105.74 138V97.4299L48.72 182.16Z" fill="white"/>
</g>
<path opacity="0.2" d="M43.3 70.46H63.92C64.2746 70.4626 64.6139 70.6046 64.8646 70.8553C65.1154 71.106 65.2574 71.4454 65.26 71.8C65.2574 72.1545 65.1154 72.4938 64.8646 72.7446C64.6139 72.9953 64.2746 73.1373 63.92 73.14H43.3C42.9516 73.1295 42.6209 72.9838 42.3782 72.7336C42.1355 72.4834 41.9998 72.1485 42 71.8C42.0023 71.4521 42.1388 71.1186 42.381 70.869C42.6232 70.6194 42.9524 70.4728 43.3 70.46Z" fill="black"/>
</svg>
