<svg width="274" height="378" viewBox="0 0 274 378" fill="none" xmlns="http://www.w3.org/2000/svg">
<path d="M137 377.56C61.337 377.56 0 372.492 0 366.24C0 359.988 61.337 354.92 137 354.92C212.663 354.92 274 359.988 274 366.24C274 372.492 212.663 377.56 137 377.56Z" fill="#F5F5F5"/>
<path d="M84.1531 85.17C79.7454 80.7429 76.6917 74.8611 74.9922 67.5246C73.2926 60.1882 73.6695 52.3115 76.1227 43.8945C78.5774 35.5041 83.4211 27.6843 90.6537 20.4353C97.3807 13.6952 104.559 8.99323 112.189 6.32912C119.235 3.70325 126.869 3.07125 134.251 4.50265C141.096 5.87214 147.377 9.2516 152.292 14.2091C155.98 17.7266 158.723 22.1162 160.268 26.9731C161.611 31.3121 162.282 35.8308 162.261 40.3727C162.224 44.7348 161.905 52.3179 161.301 63.1219C161.168 65.6507 161.17 68.1848 161.306 70.7135C161.391 72.4456 161.686 74.161 162.183 75.8225C162.598 77.1393 163.146 78.4106 163.817 79.617C164.473 80.7821 165.675 82.748 167.444 85.5335C171.389 91.2418 171.045 96.4158 166.41 101.056C165.317 102.205 164.007 103.126 162.556 103.766C161.105 104.406 159.541 104.752 157.955 104.784C154.734 104.851 151.567 103.332 148.456 100.228C141.704 93.9285 137.729 85.2067 137.402 75.9783C137.284 70.7211 137.43 65.4614 137.842 60.219C138.201 54.6502 138.392 50.5432 138.384 47.8995C138.387 45.2743 138.022 42.6616 137.298 40.138C136.591 37.6198 135.237 35.3305 133.371 33.4972C131.624 31.6989 129.51 30.2987 127.172 29.3925C124.834 28.4863 122.329 28.0953 119.826 28.2464C114.497 28.4647 109.66 30.7387 105.315 35.0684C100.213 40.1817 97.7479 45.2307 97.9202 50.2156C98.0926 55.2004 99.8556 61.0476 103.209 67.7573C106.883 74.5692 106.529 80.1811 102.149 84.5929C100.948 85.8458 99.4988 86.8343 97.8939 87.495C96.2891 88.1558 94.564 88.4742 92.829 88.43C91.2389 88.4889 89.6531 88.2311 88.1636 87.6714C86.6742 87.1117 85.3109 86.2615 84.1531 85.17ZM194.378 127.413C191.689 130.181 188.064 131.845 184.213 132.079C180.275 132.359 176.656 130.856 173.353 127.569C171.956 126.218 170.854 124.592 170.117 122.794C169.381 120.996 169.025 119.065 169.073 117.122C169.081 115.156 169.486 113.213 170.262 111.407C171.039 109.602 172.171 107.971 173.592 106.613C174.938 105.222 176.549 104.117 178.33 103.362C180.111 102.606 182.026 102.216 183.961 102.216C185.896 102.215 187.811 102.603 189.593 103.356C191.375 104.11 192.987 105.214 194.334 106.603C197.58 109.846 199.09 113.434 198.863 117.367C198.694 121.163 197.091 124.753 194.378 127.413Z" fill="#407BFF"/>
<g opacity="0.5">
<path d="M10.4152 104.28C9.25854 100.85 9.10579 97.1609 9.97488 93.647C10.9469 89.4614 12.9873 85.5992 15.8969 82.4372C19.2737 78.739 23.5335 75.958 28.2778 74.3545C32.6146 72.6761 37.2755 72.0029 41.9099 72.3853C45.9234 72.7138 49.769 74.1405 53.0256 76.5091C56.061 78.7303 58.3625 81.8088 59.6341 85.3486C60.6242 87.8945 60.9558 90.6491 60.598 93.3572C60.2651 95.768 59.5656 98.1139 58.524 100.313C57.52 102.419 55.6413 106.027 52.8881 111.137C52.2429 112.331 51.6677 113.561 51.1653 114.821C50.8115 115.679 50.5655 116.577 50.433 117.496C50.3302 118.229 50.3057 118.971 50.3599 119.709C50.415 120.421 50.5516 121.648 50.7499 123.367C51.3433 127.06 50.0002 129.492 46.7208 130.663C45.9289 130.973 45.0837 131.122 44.2337 131.104C43.3838 131.085 42.5459 130.899 41.7683 130.555C40.9024 130.114 40.1379 129.498 39.5234 128.745C38.9088 127.992 38.4578 127.119 38.1989 126.183C36.3563 121.593 36.4089 116.46 38.3452 111.909C39.4722 109.326 40.7279 106.8 42.1077 104.342C43.5515 101.732 44.5723 99.7761 45.1758 98.4957C45.7717 97.2226 46.1867 95.8723 46.4087 94.4842C46.6358 93.0999 46.499 91.6803 46.0118 90.3648C45.5741 89.0958 44.8669 87.9367 43.9388 86.9669C43.0106 85.9972 41.8836 85.2399 40.635 84.747C37.8891 83.6603 34.8295 83.6766 32.0953 84.7925C28.4572 86.1119 26.1184 87.9957 25.079 90.4441C23.9219 93.5359 23.4374 96.839 23.6578 100.133C23.8877 104.28 22.4214 106.91 19.259 108.022C18.3904 108.355 17.4621 108.503 16.5332 108.458C15.6042 108.413 14.6948 108.175 13.8626 107.759C13.086 107.437 12.3812 106.963 11.7893 106.366C11.1975 105.769 10.7303 105.059 10.4152 104.28ZM54.3053 149.836C52.3723 150.566 50.2364 150.55 48.3145 149.791C47.3136 149.383 46.4153 148.759 45.6843 147.963C44.9533 147.167 44.4076 146.219 44.0865 145.187C43.709 144.215 43.5385 143.175 43.5858 142.134C43.6332 141.093 43.8973 140.073 44.3615 139.139C44.8139 138.188 45.4541 137.338 46.2436 136.64C47.0331 135.943 47.9555 135.412 48.9554 135.081C49.924 134.712 50.9566 134.542 51.9922 134.58C53.0278 134.618 54.0451 134.864 54.9839 135.303C55.9228 135.741 56.764 136.364 57.4576 137.134C58.1513 137.904 58.6833 138.805 59.0221 139.784C59.4428 140.782 59.6377 141.861 59.5928 142.944C59.5479 144.026 59.2643 145.085 58.7623 146.045C57.8086 147.826 56.2163 149.18 54.3053 149.836Z" fill="#407BFF"/>
</g>
<g opacity="0.1">
<path d="M32.3916 48.0319C31.4872 46.6088 31.0052 44.9582 31.0016 43.2719C30.9682 41.2741 31.4577 39.3022 32.4216 37.5519C33.5342 35.5134 35.1484 33.7925 37.1116 32.5519C38.8825 31.3053 40.9137 30.4777 43.0516 30.1319C44.9038 29.8317 46.803 30.0462 48.5416 30.7519C50.1697 31.4113 51.563 32.5433 52.5416 34.0019C53.2761 35.0407 53.737 36.2479 53.8816 37.5119C53.9962 38.637 53.9422 39.7728 53.7216 40.8819C53.5016 41.9553 53.0549 43.7953 52.3816 46.4019C52.2298 47.0154 52.1096 47.6362 52.0216 48.2619C51.9051 49.0323 51.9667 49.8191 52.2016 50.5619C52.3116 50.8819 52.5116 51.4219 52.8116 52.1819C52.9941 52.4933 53.113 52.8378 53.1615 53.1955C53.21 53.5531 53.187 53.9168 53.094 54.2656C53.001 54.6143 52.8398 54.9412 52.6197 55.2272C52.3996 55.5132 52.1249 55.7527 51.8116 55.9319C51.1607 56.3889 50.355 56.5688 49.5716 56.4319C49.1297 56.3323 48.7136 56.1411 48.3501 55.8707C47.9867 55.6002 47.684 55.2566 47.4616 54.8619C46.7573 53.8643 46.2608 52.7353 46.0016 51.5419C45.7944 50.5075 45.7707 49.4446 45.9316 48.4019C46.1476 47.108 46.4313 45.8262 46.7816 44.5619C47.1416 43.2119 47.3816 42.2219 47.5116 41.5619C47.6373 40.9032 47.6743 40.2305 47.6216 39.5619C47.5645 38.9096 47.3407 38.2829 46.9716 37.7419C46.6304 37.2191 46.1804 36.776 45.6523 36.4429C45.1242 36.1098 44.5305 35.8946 43.9116 35.8119C42.5372 35.6247 41.1443 35.9837 40.0316 36.8119C39.4002 37.1626 38.8484 37.6406 38.4112 38.2155C37.974 38.7904 37.6609 39.4498 37.4916 40.1519C37.3178 41.6801 37.4712 43.2277 37.9416 44.6919C38.5116 46.5419 38.1416 47.8919 36.8516 48.7619C36.4975 49.0088 36.0962 49.1798 35.6728 49.2641C35.2495 49.3485 34.8133 49.3443 34.3916 49.2519C33.9934 49.1931 33.6112 49.0548 33.2676 48.8452C32.924 48.6356 32.6261 48.3591 32.3916 48.0319ZM57.3416 63.6919C56.5488 64.2341 55.5841 64.4655 54.6316 64.3419C54.1288 64.2704 53.6484 64.0867 53.2261 63.8046C52.8038 63.5225 52.4502 63.1491 52.1916 62.7119C51.9122 62.3158 51.7182 61.8659 51.6218 61.3908C51.5254 60.9156 51.5287 60.4257 51.6316 59.9519C51.7286 59.4709 51.921 59.0142 52.1975 58.6088C52.4741 58.2035 52.8291 57.8577 53.2416 57.5919C53.6376 57.3159 54.0855 57.1231 54.5582 57.0252C55.0309 56.9272 55.5185 56.9261 55.9916 57.0219C56.467 57.1096 56.9192 57.2943 57.32 57.5644C57.7209 57.8345 58.0619 58.1843 58.3216 58.5919C58.6231 58.9965 58.8322 59.4623 58.9341 59.9564C59.0361 60.4506 59.0284 60.9611 58.9116 61.4519C58.6872 62.3688 58.1269 63.1682 57.3416 63.6919Z" fill="#407BFF"/>
</g>
<path d="M174.21 359.62L181.77 357.66L177.26 340.37L169.7 342.33L174.21 359.62Z" fill="#FFC3BD"/>
<path d="M181.85 355.66L173.41 358.33C173.34 358.347 173.274 358.379 173.216 358.422C173.158 358.466 173.11 358.52 173.073 358.583C173.037 358.645 173.014 358.714 173.004 358.786C172.995 358.858 173.001 358.93 173.02 359L174.8 365.55C174.925 365.894 175.178 366.176 175.506 366.338C175.833 366.5 176.211 366.53 176.56 366.42C179.48 365.42 180.83 364.84 184.56 363.66C186.85 362.94 192.37 361.31 195.56 360.31C198.75 359.31 197.56 356.31 196.17 356.5C189.75 357.17 186.02 356.63 183.35 355.7C182.868 355.522 182.341 355.508 181.85 355.66Z" fill="#263238"/>
<path opacity="0.2" d="M169.7 342.34L177.26 340.38L179.58 349.29L172.02 351.25L169.7 342.34Z" fill="black"/>
<path d="M150.65 165.53C150.65 165.53 164.49 231.3 168.17 252.83C172.17 276.41 180.96 343.92 180.96 343.92L168.11 348.59C168.11 348.59 148 277 144.95 254.33C138.56 232.17 122.37 165.53 122.37 165.53H150.65Z" fill="#407BFF"/>
<path opacity="0.3" d="M132.88 187C137.37 197.78 139 217.41 138.22 229.15C134.66 215.29 130.71 199.46 127.65 187.06C128.64 183.65 130 180.07 132.88 187Z" fill="black"/>
<path d="M168.37 350.11L182.15 346.13L181.63 340.3L165.23 344.91L168.37 350.11Z" fill="#263238"/>
<path d="M184.95 356.08C184.268 356.275 183.568 356.399 182.86 356.45C182.824 356.456 182.788 356.45 182.755 356.434C182.723 356.418 182.697 356.392 182.68 356.36C182.661 356.332 182.651 356.299 182.651 356.265C182.651 356.231 182.661 356.198 182.68 356.17C182.87 355.93 184.52 353.86 185.55 353.92C185.668 353.924 185.784 353.959 185.885 354.02C185.987 354.081 186.071 354.167 186.13 354.27C186.232 354.414 186.294 354.582 186.31 354.758C186.326 354.933 186.295 355.11 186.22 355.27C185.91 355.686 185.458 355.974 184.95 356.08ZM183.25 356.08C184.69 355.91 185.66 355.56 185.9 355.08C185.947 354.976 185.964 354.861 185.95 354.749C185.936 354.636 185.891 354.529 185.82 354.44C185.792 354.389 185.752 354.346 185.703 354.314C185.654 354.283 185.598 354.264 185.54 354.26C185 354.24 183.94 355.25 183.25 356.06V356.08Z" fill="#407BFF"/>
<path d="M182.9 356.45H182.81C182.781 356.445 182.752 356.434 182.728 356.416C182.704 356.399 182.684 356.376 182.67 356.35C182.67 356.26 181.75 354.23 182.27 353.29C182.341 353.17 182.437 353.066 182.55 352.985C182.664 352.904 182.793 352.848 182.93 352.82C183.08 352.776 183.241 352.783 183.387 352.839C183.533 352.895 183.657 352.997 183.74 353.13C184.19 353.87 183.58 355.73 182.98 356.39C182.961 356.418 182.933 356.439 182.9 356.45ZM182.9 353.19C182.831 353.211 182.767 353.245 182.712 353.292C182.657 353.338 182.612 353.395 182.58 353.46C182.399 354.286 182.501 355.149 182.87 355.91C183.34 355.17 183.7 353.79 183.4 353.31C183.4 353.22 183.25 353.12 182.99 353.17L182.9 353.19Z" fill="#407BFF"/>
<path d="M139.94 109.2C140.61 110.82 141.25 112.26 141.94 113.74C142.63 115.22 143.37 116.67 144.12 118.12C145.64 121.01 147.24 123.86 149 126.64C152.502 132.418 156.737 137.719 161.6 142.41L161.78 142.59C162.035 142.82 162.317 143.018 162.62 143.18C163.453 143.629 164.368 143.904 165.31 143.99C165.849 144.028 166.391 144.028 166.93 143.99C167.737 143.938 168.539 143.828 169.33 143.66C170.75 143.36 172.01 142.99 173.25 142.6C175.71 141.82 178 140.87 180.25 139.91C182.5 138.95 184.72 137.91 186.9 136.78C189.08 135.65 191.22 134.52 193.34 133.24C193.832 132.94 194.2 132.474 194.379 131.927C194.558 131.379 194.536 130.786 194.317 130.253C194.097 129.72 193.695 129.284 193.183 129.021C192.67 128.758 192.081 128.687 191.52 128.82C186.88 129.94 182.25 131.19 177.69 132.3C175.42 132.87 173.15 133.37 170.97 133.79C169.943 133.998 168.904 134.148 167.86 134.24C167.467 134.263 167.073 134.263 166.68 134.24C166.53 134.24 166.47 134.24 166.51 134.24C166.866 134.25 167.212 134.357 167.51 134.55L168.51 135.32C166.575 133.178 164.782 130.914 163.14 128.54C161.46 126.11 159.87 123.54 158.34 120.96C156.81 118.38 155.34 115.67 153.95 112.96C152.56 110.25 151.18 107.46 149.95 104.85L149.89 104.72C149.3 103.394 148.207 102.356 146.852 101.836C145.497 101.316 143.991 101.355 142.665 101.945C141.339 102.535 140.302 103.628 139.781 104.983C139.261 106.338 139.3 107.844 139.89 109.17L139.94 109.2Z" fill="#FFC3BD"/>
<path d="M141.48 98.6198C147.92 98.7998 152.34 105.79 156.56 114.5C153.325 120.092 148.69 124.744 143.11 128C143.11 128 126.19 98.1898 141.48 98.6198Z" fill="#E0E0E0"/>
<path d="M193.66 133.28L199.46 131.8L194.94 125.99C194.94 125.99 189.94 126.78 188.04 130.99L190.1 132.46C190.6 132.844 191.176 133.116 191.791 133.258C192.405 133.399 193.042 133.407 193.66 133.28Z" fill="#FFC3BD"/>
<path d="M200.87 125.86L199.75 124.86C199.292 124.459 198.707 124.232 198.098 124.219C197.489 124.206 196.895 124.408 196.42 124.79L194.94 125.98L199.46 131.79L201.31 128.91C201.616 128.434 201.741 127.863 201.66 127.303C201.579 126.743 201.298 126.23 200.87 125.86Z" fill="#FFC3BD"/>
<path d="M106.54 358.72H114.45L116.34 341.1H108.43L106.54 358.72Z" fill="#FFC3BD"/>
<path d="M115.14 357.84H106.25C106.103 357.832 105.959 357.881 105.848 357.979C105.738 358.076 105.67 358.213 105.66 358.36L105.23 365.12C105.238 365.483 105.388 365.829 105.648 366.083C105.907 366.337 106.257 366.48 106.62 366.48C109.71 366.42 111.19 366.25 115.1 366.25C117.5 366.25 124.1 366.49 127.45 366.49C130.8 366.49 130.68 363.33 129.27 363.05C122.96 361.76 118.74 359.99 116.5 358.31C116.111 358.008 115.633 357.843 115.14 357.84Z" fill="#263238"/>
<path opacity="0.2" d="M108.43 341.1H116.34L115.36 350.19H107.45L108.43 341.1Z" fill="black"/>
<path d="M135.19 165.53C135.19 165.53 133.44 231.65 132.19 253.44C130.79 277.3 118.94 347.99 118.94 347.99H104.44C104.44 347.99 107.62 276.4 110.02 252.99C109.02 227.35 108.36 165.51 108.36 165.51L135.19 165.53Z" fill="#407BFF"/>
<path d="M103.86 347.99H120.3L121.08 342.7L103.42 343L103.86 347.99Z" fill="#263238"/>
<path d="M117.94 359.16C117.229 359.144 116.522 359.054 115.83 358.89C115.796 358.884 115.765 358.867 115.742 358.841C115.719 358.816 115.704 358.784 115.7 358.75C115.691 358.716 115.692 358.681 115.705 358.648C115.718 358.616 115.74 358.588 115.77 358.57C116.02 358.41 118.26 356.93 119.23 357.3C119.338 357.34 119.435 357.407 119.51 357.494C119.585 357.582 119.637 357.687 119.66 357.8C119.723 357.971 119.734 358.157 119.694 358.334C119.653 358.512 119.561 358.673 119.43 358.8C118.992 359.094 118.464 359.222 117.94 359.16ZM116.34 358.64C117.76 358.91 118.8 358.86 119.17 358.51C119.246 358.426 119.299 358.324 119.322 358.213C119.344 358.102 119.337 357.987 119.3 357.88C119.291 357.825 119.267 357.773 119.232 357.729C119.197 357.685 119.152 357.651 119.1 357.63C118.58 357.43 117.26 358.07 116.34 358.64Z" fill="#407BFF"/>
<path d="M115.88 358.9H115.79C115.763 358.884 115.741 358.862 115.723 358.836C115.706 358.81 115.695 358.781 115.69 358.75C115.69 358.66 115.51 356.47 116.31 355.75C116.413 355.652 116.536 355.579 116.672 355.537C116.807 355.496 116.95 355.486 117.09 355.51C117.245 355.512 117.394 355.565 117.515 355.661C117.637 355.756 117.723 355.89 117.76 356.04C117.94 356.87 116.76 358.46 115.97 358.91L115.88 358.9ZM117 355.81C116.926 355.807 116.852 355.821 116.784 355.848C116.715 355.876 116.652 355.917 116.6 355.97C116.162 356.696 115.979 357.548 116.08 358.39C116.77 357.83 117.56 356.62 117.44 356.08C117.44 355.97 117.35 355.85 117.08 355.82L117 355.81Z" fill="#407BFF"/>
<path d="M147.32 103.71C146.894 102.415 146.126 101.259 145.098 100.364C144.071 99.468 142.821 98.8656 141.48 98.6198C139.526 98.164 137.546 97.8301 135.55 97.6198C129.555 97.2888 123.546 97.2888 117.55 97.6198C114.41 97.7598 111.21 98.1298 108.66 98.4898H108.57C107.915 98.566 107.282 98.7748 106.71 99.1034C106.138 99.432 105.639 99.8736 105.244 100.401C104.848 100.929 104.564 101.532 104.408 102.173C104.253 102.814 104.23 103.48 104.34 104.13C106.336 114.32 107.643 124.634 108.25 135C108.87 150.06 108.03 161.88 108.33 165.51H150.65C153.22 128.78 149.9 112.08 147.32 103.71Z" fill="#E0E0E0"/>
<path d="M114.68 75.2097C113.942 75.7428 113.355 76.4584 112.976 77.2865C112.597 78.1146 112.44 79.0269 112.52 79.934C112.599 80.8411 112.913 81.712 113.43 82.4615C113.947 83.211 114.65 83.8134 115.47 84.2097C113.76 87.0397 118.31 92.0397 122.89 88.8997C127.47 85.7597 121 72.5397 114.68 75.2097Z" fill="#263238"/>
<path d="M133.62 72.17C134.248 72.1886 134.871 72.0437 135.426 71.7495C135.982 71.4553 136.452 71.0218 136.789 70.4916C137.127 69.9614 137.321 69.3525 137.353 68.7247C137.385 68.0969 137.253 67.4716 136.97 66.91C139.1 66.08 138.72 61.43 134.88 61.23C131.04 61.03 129.06 71 133.62 72.17Z" fill="#263238"/>
<path d="M134.87 101.55C135.156 101.287 135.369 100.954 135.488 100.584C135.607 100.215 135.628 99.8201 135.548 99.4398C135.468 99.0596 135.291 98.7066 135.034 98.4155C134.776 98.1244 134.448 97.9053 134.08 97.7796C130.22 96.3596 129.52 93.5596 129.83 90.5096C129.919 89.652 130.059 88.8005 130.25 87.9597L123.7 82.7296L118.88 78.8896C120.08 83.8896 121.42 92.5996 118.88 97.0096C118.595 97.4711 118.485 98.0192 118.57 98.5548C118.654 99.0904 118.927 99.5781 119.34 99.9296C121 101.4 124.4 103.3 130 103C132.57 102.87 134 102.28 134.87 101.55Z" fill="#FFC3BD"/>
<path d="M149.49 103.89C149.013 102.45 148.172 101.158 147.049 100.138C145.926 99.1185 144.559 98.4061 143.08 98.0699C141.182 97.7685 139.269 97.5682 137.35 97.4699C137.15 97.4411 136.945 97.4627 136.755 97.5326C136.565 97.6025 136.396 97.7186 136.262 97.8703C136.128 98.0221 136.034 98.2048 135.988 98.402C135.943 98.5992 135.947 98.8047 136 98.9999C139.35 111.44 144.13 136.33 142.65 167.16C142.643 167.352 142.676 167.543 142.745 167.722C142.815 167.901 142.92 168.064 143.055 168.2C143.19 168.337 143.351 168.445 143.529 168.517C143.707 168.589 143.898 168.624 144.09 168.62H152.49C152.854 168.626 153.207 168.493 153.477 168.248C153.746 168.002 153.912 167.663 153.94 167.3C156.47 129.63 152 110.86 149.49 103.89Z" fill="#263238"/>
<path d="M108.89 97.7397C111.579 97.3545 114.286 97.1075 117 96.9997C117.491 96.9639 117.979 97.1028 118.378 97.3919C118.777 97.681 119.061 98.1016 119.18 98.5797C122.29 112.28 125.06 142.72 125.18 167.21C125.176 167.396 125.135 167.58 125.06 167.751C124.985 167.922 124.878 168.076 124.743 168.205C124.608 168.334 124.449 168.435 124.276 168.503C124.102 168.571 123.916 168.604 123.73 168.6H108.73C108.358 168.608 107.998 168.47 107.727 168.216C107.456 167.961 107.296 167.611 107.28 167.24C107.18 162.31 107.86 150.76 107.28 136.42C106.726 126.201 105.442 116.035 103.44 106C102.92 103.19 105.92 98.1597 108.89 97.7397Z" fill="#263238"/>
<path d="M103.62 102.09C100.41 106.93 97.4899 111.78 94.7299 116.87C93.3699 119.42 92.0299 122.01 90.8199 124.73C90.2199 126.09 89.6299 127.48 89.0799 128.95C88.4737 130.54 88.0053 132.179 87.6799 133.85C87.4335 135.067 87.3795 136.316 87.5199 137.55C87.6833 138.549 87.9412 139.53 88.2899 140.48C88.8604 142.029 89.5595 143.527 90.3799 144.96C91.8519 147.557 93.492 150.056 95.2899 152.44C98.749 157.056 102.532 161.42 106.61 165.5C107.081 165.972 107.709 166.255 108.375 166.294C109.041 166.333 109.698 166.126 110.222 165.713C110.745 165.299 111.098 164.708 111.214 164.051C111.33 163.394 111.2 162.717 110.85 162.15V162.09C107.94 157.4 105 152.62 102.34 147.88C101.02 145.52 99.7599 143.12 98.7499 140.8C97.7399 138.48 96.9999 135.94 97.5199 135.87C97.8389 134.806 98.2264 133.764 98.6799 132.75C99.1799 131.61 99.7499 130.43 100.35 129.26C101.57 126.91 102.88 124.52 104.25 122.17C106.99 117.45 109.91 112.69 112.8 108.08V108.02C113.586 106.802 113.857 105.322 113.552 103.906C113.247 102.489 112.392 101.251 111.175 100.465C109.958 99.6783 108.478 99.4078 107.061 99.7125C105.644 100.017 104.406 100.872 103.62 102.09Z" fill="#FFC3BD"/>
<path d="M109.84 97.6099C103.4 97.4899 99.9899 102.94 95.7699 111.61C100.55 120.46 109.67 124.29 109.67 124.29C109.67 124.29 122.5 97.8299 109.84 97.6099Z" fill="#E0E0E0"/>
<path d="M113.14 161.89L116.85 163.07L109.98 168.29C109.98 168.29 104.36 165.37 106.12 162.72L107.26 162.21C109.116 161.391 111.207 161.277 113.14 161.89Z" fill="#FFC3BD"/>
<path d="M118.93 167.65L114.76 171.84C114.625 171.971 114.465 172.073 114.288 172.139C114.112 172.206 113.924 172.234 113.736 172.224C113.548 172.214 113.364 172.164 113.196 172.079C113.028 171.994 112.88 171.875 112.76 171.73L109.99 168.29L116.86 163.07L119 166C119.197 166.234 119.3 166.533 119.287 166.838C119.274 167.144 119.146 167.434 118.93 167.65Z" fill="#FFC3BD"/>
<path opacity="0.2" d="M130.25 88C130.059 88.8408 129.919 89.6924 129.83 90.55C127.35 91.18 123.83 88.34 123.5 85.93C123.458 84.8726 123.525 83.8137 123.7 82.77L130.25 88Z" fill="black"/>
<path d="M114.77 71.79C116.46 79.17 117.06 83.57 121.6 86.86C123.085 87.9463 124.832 88.6194 126.662 88.811C128.492 89.0026 130.34 88.7057 132.018 87.9506C133.696 87.1955 135.143 86.0091 136.214 84.5124C137.284 83.0156 137.938 81.262 138.11 79.43C138.69 72.51 135.83 61.6 127.75 59.66C119.67 57.72 113.08 64.4 114.77 71.79Z" fill="#FFC3BD"/>
<path d="M118.19 78.2499C120.33 78.3599 122.61 70.8099 117.89 67.1699C118.64 67.5799 120.69 66.8299 120.33 65.4199C121.72 65.9999 127.8 65.7499 126.33 63.2799C129.42 64.0799 136.16 62.7399 136.88 59.7899C137.6 56.8399 134.12 56.7399 133.58 57.1299C135.11 54.9899 135.08 51.8499 131.02 50.7099C126.96 49.5699 120.84 55.4399 120.84 55.4399C121.48 53.8899 119.23 52.6399 116.9 53.9699C114.57 55.2999 113.48 59.0799 113.48 59.0799C113.48 57.9399 108.04 59.4699 110.62 64.2499C107.95 65.2499 106.73 66.6699 106.9 69.1399C107.07 71.6099 108.76 71.7499 108.76 71.7499C108.402 72.6391 108.353 73.6226 108.619 74.5433C108.886 75.4641 109.453 76.2691 110.23 76.8299C113 79.0599 115.42 76.4399 118.19 78.2499Z" fill="#263238"/>
<path d="M113.95 78.8198C114.891 80.1961 116.28 81.2034 117.88 81.6698C119.94 82.2198 120.64 80.3798 119.8 78.4598C119.04 76.7298 117.06 74.3498 115.12 74.6498C113.18 74.9498 112.79 77.0998 113.95 78.8198Z" fill="#FFC3BD"/>
<path d="M127 71.49C127.1 72.09 127.52 72.54 127.93 72.49C128.34 72.44 128.6 71.9 128.5 71.29C128.4 70.68 127.98 70.29 127.57 70.29C127.16 70.29 126.95 70.88 127 71.49Z" fill="#263238"/>
<path d="M134.32 70.16C134.42 70.77 134.83 71.22 135.24 71.16C135.65 71.1 135.91 70.57 135.81 69.96C135.71 69.35 135.3 68.96 134.89 68.96C134.48 68.96 134.22 69.56 134.32 70.16Z" fill="#263238"/>
<path d="M131.43 71.52C132.495 73.2798 133.798 74.8848 135.3 76.29C134.911 76.6557 134.448 76.9341 133.943 77.1065C133.438 77.279 132.901 77.3415 132.37 77.29L131.43 71.52Z" fill="#ED847E"/>
<path d="M131.07 80.2697C130.343 80.3519 129.606 80.2881 128.904 80.082C128.202 79.876 127.548 79.5318 126.98 79.0697C126.947 79.0345 126.929 78.988 126.929 78.9397C126.929 78.8914 126.947 78.8449 126.98 78.8097C127.016 78.7787 127.062 78.7617 127.11 78.7617C127.158 78.7617 127.204 78.7787 127.24 78.8097C127.864 79.305 128.593 79.6523 129.37 79.8255C130.148 79.9987 130.955 79.9933 131.73 79.8097C131.754 79.8038 131.778 79.8028 131.802 79.8068C131.827 79.8107 131.85 79.8195 131.87 79.8326C131.891 79.8457 131.908 79.8628 131.922 79.8829C131.936 79.9031 131.945 79.9258 131.95 79.9497C131.956 79.9728 131.957 79.9968 131.953 80.0203C131.949 80.0437 131.94 80.0661 131.927 80.0858C131.914 80.1056 131.896 80.1224 131.876 80.1352C131.856 80.1479 131.834 80.1563 131.81 80.1597C131.566 80.2145 131.319 80.2512 131.07 80.2697Z" fill="#263238"/>
<path d="M126.7 67.3299C126.76 67.346 126.815 67.377 126.86 67.4199C126.895 67.4527 126.923 67.4922 126.941 67.536C126.96 67.5799 126.97 67.6272 126.97 67.6749C126.97 67.7227 126.96 67.77 126.941 67.8139C126.923 67.8577 126.895 67.8972 126.86 67.9299C126.471 68.3654 125.982 68.7001 125.435 68.9056C124.888 69.1111 124.3 69.1812 123.72 69.1099C123.672 69.1052 123.625 69.0905 123.583 69.0669C123.541 69.0433 123.504 69.0112 123.475 68.9727C123.446 68.9342 123.425 68.8901 123.414 68.8432C123.403 68.7962 123.401 68.7475 123.41 68.6999C123.418 68.652 123.436 68.6061 123.462 68.5651C123.489 68.524 123.523 68.4885 123.563 68.4606C123.603 68.4328 123.648 68.4131 123.695 68.4026C123.743 68.3922 123.792 68.3913 123.84 68.3999C124.298 68.4404 124.76 68.3708 125.186 68.1968C125.612 68.0229 125.991 67.7497 126.29 67.3999C126.345 67.3518 126.413 67.3198 126.485 67.3075C126.557 67.2951 126.632 67.3029 126.7 67.3299Z" fill="#263238"/>
<path d="M136.39 65.5197C136.335 65.5443 136.275 65.557 136.215 65.557C136.155 65.557 136.095 65.5443 136.04 65.5197C135.613 65.3068 135.145 65.1902 134.668 65.1781C134.191 65.166 133.717 65.2587 133.28 65.4497C133.195 65.4981 133.094 65.5115 132.999 65.4873C132.904 65.4631 132.822 65.403 132.77 65.3197C132.726 65.233 132.718 65.1329 132.746 65.0399C132.773 64.9469 132.836 64.8681 132.92 64.8197C133.46 64.5607 134.051 64.4263 134.65 64.4263C135.249 64.4263 135.84 64.5607 136.38 64.8197C136.424 64.8388 136.463 64.8668 136.495 64.902C136.527 64.9372 136.552 64.9788 136.567 65.024C136.582 65.0693 136.588 65.1173 136.583 65.1648C136.578 65.2123 136.564 65.2583 136.54 65.2997C136.517 65.3884 136.464 65.4663 136.39 65.5197Z" fill="#263238"/>
</svg>
