<svg width="69" height="23" viewBox="0 0 69 23" fill="none" xmlns="http://www.w3.org/2000/svg">
<path d="M10.056 18C9.112 18 8.288 17.792 7.584 17.376C6.88 16.944 6.328 16.368 5.928 15.648C5.544 14.928 5.352 14.128 5.352 13.248V3.72H0.456V1.2H13.104V3.72H8.208V13.608C8.208 14.12 8.384 14.56 8.736 14.928C9.088 15.296 9.536 15.48 10.08 15.48H11.232V18H10.056ZM18.999 18.288C17.831 18.288 16.823 18 15.975 17.424C15.127 16.848 14.471 16.08 14.007 15.12C13.559 14.144 13.335 13.072 13.335 11.904C13.335 10.688 13.591 9.6 14.103 8.64C14.631 7.664 15.375 6.896 16.335 6.336C17.311 5.76 18.471 5.472 19.815 5.472C21.143 5.472 22.271 5.76 23.199 6.336C24.143 6.896 24.863 7.664 25.359 8.64C25.871 9.6 26.127 10.672 26.127 11.856V18H23.367V15.72H23.319C23.079 16.168 22.767 16.592 22.383 16.992C21.999 17.376 21.527 17.688 20.967 17.928C20.407 18.168 19.751 18.288 18.999 18.288ZM19.743 15.936C20.463 15.936 21.087 15.76 21.615 15.408C22.159 15.04 22.583 14.552 22.887 13.944C23.191 13.32 23.335 12.624 23.319 11.856C23.319 11.088 23.175 10.408 22.887 9.816C22.599 9.208 22.191 8.728 21.663 8.376C21.135 8.008 20.503 7.824 19.767 7.824C18.999 7.824 18.343 8.008 17.799 8.376C17.255 8.728 16.839 9.208 16.551 9.816C16.263 10.424 16.119 11.112 16.119 11.88C16.119 12.632 16.263 13.32 16.551 13.944C16.839 14.552 17.247 15.04 17.775 15.408C18.319 15.76 18.975 15.936 19.743 15.936ZM29.3814 18V15.648H35.2854C35.5734 15.648 35.8214 15.584 36.0294 15.456C36.2534 15.328 36.4214 15.16 36.5334 14.952C36.6614 14.744 36.7254 14.528 36.7254 14.304C36.7254 14.048 36.6694 13.824 36.5574 13.632C36.4454 13.44 36.2854 13.288 36.0774 13.176C35.8694 13.048 35.6294 12.984 35.3574 12.984H32.9574C32.1734 12.984 31.4774 12.856 30.8694 12.6C30.2614 12.344 29.7814 11.952 29.4294 11.424C29.0774 10.88 28.9014 10.2 28.9014 9.384C28.9014 8.728 29.0614 8.128 29.3814 7.584C29.7174 7.04 30.1654 6.6 30.7254 6.264C31.2854 5.928 31.9174 5.76 32.6214 5.76H38.3094V8.112H32.8854C32.5174 8.112 32.2134 8.232 31.9734 8.472C31.7334 8.696 31.6134 8.976 31.6134 9.312C31.6134 9.632 31.7334 9.912 31.9734 10.152C32.2134 10.392 32.5334 10.512 32.9334 10.512H35.2614C36.1414 10.512 36.8934 10.648 37.5174 10.92C38.1414 11.192 38.6134 11.6 38.9334 12.144C39.2694 12.688 39.4374 13.376 39.4374 14.208C39.4374 14.88 39.2694 15.512 38.9334 16.104C38.5974 16.68 38.1334 17.144 37.5414 17.496C36.9654 17.832 36.3094 18 35.5734 18H29.3814ZM42.1794 18V0.48H44.9394V10.656H47.5794L50.6514 5.76H53.6994L50.2674 11.088C51.3714 11.472 52.2274 12.12 52.8354 13.032C53.4434 13.928 53.7474 14.96 53.7474 16.128V18H50.9874V16.128C50.9874 15.552 50.8514 15.032 50.5794 14.568C50.3074 14.088 49.9394 13.712 49.4754 13.44C49.0114 13.168 48.4834 13.032 47.8914 13.032H44.9394V18H42.1794ZM61.1289 22.872V18.168C60.2009 17.992 59.4009 17.664 58.7289 17.184C58.0569 16.688 57.5369 16.064 57.1689 15.312C56.8009 14.56 56.6169 13.728 56.6169 12.816V5.76H59.3769V12.792C59.3769 13.416 59.5129 13.968 59.7849 14.448C60.0729 14.912 60.4489 15.28 60.9129 15.552C61.3929 15.808 61.9129 15.936 62.4729 15.936C63.0329 15.936 63.5449 15.808 64.0089 15.552C64.4889 15.28 64.8649 14.912 65.1369 14.448C65.4249 13.968 65.5689 13.416 65.5689 12.792V5.76H68.3289V12.816C68.3289 13.728 68.1449 14.552 67.7769 15.288C67.4089 16.024 66.8889 16.648 66.2169 17.16C65.5609 17.656 64.7769 17.984 63.8649 18.144V22.872H61.1289Z" fill="#06B6D4"/>
</svg>
