<svg width="1000" height="543" viewBox="0 0 1000 543" fill="none" xmlns="http://www.w3.org/2000/svg">
<g clip-path="url(#clip0_228_1178)">
<path d="M1000 479.064H0V478.904H1000V479.064Z" fill="#DADBD8"/>
<path d="M871.501 518.072H945.807V518.634H871.501V518.072Z" fill="#E7E8E5"/>
<path d="M660.059 524.16H679.56V524.72H660.059V524.16Z" fill="#E7E8E5"/>
<path d="M54.1926 501.009H151.092V501.569H54.1926V501.009Z" fill="#E7E8E5"/>
<path d="M171.065 501.009H185.273V501.569H171.065V501.009Z" fill="#E7E8E5"/>
<path d="M231.448 510.481H441.597V511.041H231.448V510.481Z" fill="#E7E8E5"/>
<path d="M978.448 534.116C978.448 538.632 763.497 542.293 498.343 542.293C233.188 542.293 18.2375 538.632 18.2375 534.116C18.2375 529.601 233.188 525.94 498.343 525.94C763.497 525.94 978.448 529.601 978.448 534.116Z" fill="#F3F2F1"/>
<path d="M883.704 199.876H718.347C713.833 199.876 710.175 203.535 710.175 208.048V267.224C711.313 268.376 714.899 270.624 723.76 266.669L723.761 266.7C728.671 263.123 734.697 260.987 741.237 260.987C757.661 260.987 770.976 274.301 770.976 290.727C770.976 307.152 757.661 320.467 741.237 320.467C735.043 320.467 729.295 318.569 724.532 315.329V315.335C724.532 315.335 714.945 309.02 710.175 314.791V373.405C710.175 377.919 713.833 381.577 718.347 381.577H883.704C888.217 381.577 891.876 377.919 891.876 373.405V208.048C891.876 203.535 888.217 199.876 883.704 199.876Z" fill="#406FBF"/>
<path d="M858.171 381.577H848.312L845.265 354.264C842.757 344.733 836.989 337.209 830.217 336.708C829.973 336.691 829.74 336.681 829.519 336.681C823.572 336.681 825.237 343.089 826.205 352.76L828.641 381.577H746.041H735.632H718.347C713.833 381.577 710.175 377.919 710.175 373.405V317.232C710.232 317.26 710.288 317.288 710.344 317.316C710.304 322.28 710.175 327.952 710.175 327.952C710.175 327.952 718.169 331.688 726.848 331.688C733.931 331.688 741.468 329.201 745.489 320.164C759.9 318.101 770.976 305.708 770.976 290.727C770.976 274.301 757.661 260.987 741.237 260.987C738.213 260.987 735.3 261.444 732.556 262.288C729.672 261.356 726.595 260.852 723.4 260.852C718.643 260.852 714.156 261.981 710.175 263.975V208.048C710.175 203.535 713.833 199.876 718.347 199.876H743.44C743.497 201.957 745.019 239.549 779.137 253.079C814.233 266.996 808.788 291.2 799.711 311.168C790.635 331.136 733.756 381.525 736.176 381.525C738.596 381.525 771.301 381.525 771.301 381.525C771.301 381.525 767.641 365.329 794.265 332.803C820.889 300.276 829.545 273.652 814.931 258.525C800.323 243.405 758.003 237.336 772.461 199.876H883.704C888.217 199.876 891.876 203.535 891.876 208.048V298.424C890.86 292.963 890.159 289.808 890.159 289.808C890.159 289.808 883.639 274.259 880.628 267.989C878.348 263.239 875.78 262.663 874.669 262.663C874.315 262.663 874.108 262.721 874.108 262.721C874.108 262.721 871.6 250.684 865.831 250.181C865.656 250.167 865.483 250.159 865.311 250.159C859.821 250.159 856.012 257.912 854.796 272.503C853.541 287.551 859.311 318.651 859.311 329.435C859.311 329.435 857.841 373.361 858.171 381.577ZM740.613 320.827C738.811 320.827 736.671 320.561 734.491 319.696C736.659 320.2 738.916 320.467 741.237 320.467C742.672 320.467 744.083 320.364 745.464 320.168C745.212 320.247 743.279 320.827 740.613 320.827Z" fill="#7DA6DD"/>
<path d="M848.312 381.577H828.642L826.206 352.76C825.238 343.089 823.572 336.681 829.519 336.681C829.74 336.681 829.974 336.691 830.218 336.708C836.99 337.209 842.758 344.733 845.266 354.264L848.312 381.577Z" fill="#4869A2"/>
<path d="M899.331 381.577H858.171H883.704C888.218 381.577 891.876 377.919 891.876 373.405V298.424C894.771 313.977 900.224 348.233 899.331 381.577Z" fill="#8C8F8F"/>
<path d="M883.704 381.577H858.171C857.841 373.361 859.311 329.435 859.311 329.435C859.311 318.651 853.542 287.551 854.796 272.503C856.012 257.912 859.822 250.159 865.311 250.159C865.483 250.159 865.656 250.167 865.831 250.181C871.6 250.684 874.108 262.721 874.108 262.721C874.108 262.721 874.315 262.663 874.67 262.663C875.78 262.663 878.348 263.239 880.628 267.989C883.639 274.259 890.159 289.808 890.159 289.808C890.159 289.808 890.86 292.963 891.876 298.424V373.405C891.876 377.919 888.217 381.577 883.704 381.577Z" fill="#4869A2"/>
<path d="M885.745 534.116C885.745 534.116 881.388 467.877 872.975 462.895C871.508 462.027 845.775 439.537 838.501 415.46C831.228 391.383 834.237 362.792 833.235 352.76C832.232 342.728 830.476 336.207 837.248 336.708C844.019 337.209 849.788 344.733 852.296 354.264C854.804 363.795 853.048 384.863 856.308 388.875C859.569 392.888 861.825 390.38 861.825 389.627C861.825 388.875 866.34 340.22 866.34 329.435C866.34 318.651 860.572 287.551 861.825 272.503C863.08 257.455 867.093 249.68 872.861 250.181C878.629 250.684 881.137 262.721 881.137 262.721C881.137 262.721 884.649 261.719 887.659 267.989C890.668 274.259 897.189 289.808 897.189 289.808C897.189 289.808 897.941 277.771 903.208 277.268C908.475 276.767 911.233 282.787 913.24 290.059C915.247 297.332 918.507 308.619 920.263 317.396C922.019 326.175 923.773 340.471 923.773 340.471C923.773 340.471 925.529 316.644 927.285 312.632C929.04 308.619 935.311 305.108 937.067 308.619C938.821 312.129 935.311 352.007 935.311 359.531C935.311 367.055 927.285 425.241 930.295 438.283C933.304 451.324 962.136 534.116 962.136 534.116H885.745Z" fill="#C8685A"/>
<path d="M891.222 354.412C892.128 341.577 893.028 328.625 891.325 315.816C889.833 304.58 886.673 293.616 884.621 282.479C883.36 275.64 882.502 268.747 882.209 261.796C882.156 260.515 880.156 260.508 880.209 261.796C880.698 273.385 882.896 284.709 885.39 296.008C886.629 301.612 887.913 307.216 888.876 312.875C889.966 319.288 890.312 325.809 890.286 332.308C890.257 339.688 889.741 347.053 889.222 354.412C889.132 355.696 891.132 355.691 891.222 354.412Z" fill="#B5413C"/>
<path d="M896.656 289.329C900.435 297.387 904.173 305.701 906.591 314.28C907.741 318.361 907.793 322.513 907.879 326.728C907.996 332.465 907.977 338.205 907.928 343.944C907.899 347.433 907.857 350.923 907.791 354.412C907.765 355.7 909.765 355.7 909.791 354.412C909.96 345.661 910.045 336.901 909.905 328.151C909.836 323.875 909.937 319.432 908.917 315.251C907.58 309.768 905.377 304.464 903.207 299.269C901.669 295.591 900.076 291.931 898.383 288.32C897.836 287.156 896.112 288.171 896.656 289.329Z" fill="#B5413C"/>
<path d="M922.937 337.057C922.2 345.367 922.847 353.761 922.856 362.087C922.858 363.373 924.858 363.376 924.856 362.087C924.847 353.761 924.2 345.367 924.937 337.057C925.052 335.776 923.051 335.784 922.937 337.057Z" fill="#B5413C"/>
<path d="M772.461 199.876H743.44C743.438 199.855 743.438 199.837 743.438 199.824H772.481C772.474 199.843 772.469 199.857 772.461 199.876Z" fill="white"/>
<path d="M771.301 381.525C771.301 381.525 738.596 381.525 736.176 381.525C733.756 381.525 790.635 331.136 799.711 311.168C808.788 291.2 814.233 266.996 779.137 253.079C745.019 239.549 743.497 201.957 743.44 199.876H772.461C758.003 237.336 800.323 243.405 814.931 258.525C829.545 273.652 820.889 300.276 794.265 332.803C767.641 365.329 771.301 381.525 771.301 381.525Z" fill="#92B8E5"/>
<path d="M743.439 199.824H739.807L743.437 199.785C743.437 199.785 743.437 199.799 743.439 199.824Z" fill="white"/>
<path d="M745.464 320.168C745.481 320.163 745.491 320.16 745.491 320.16L745.489 320.164C745.48 320.165 745.472 320.167 745.464 320.168Z" fill="#858889"/>
<path d="M734.49 319.696C733.682 319.509 732.888 319.288 732.106 319.036C732.305 318.975 732.504 318.912 732.701 318.847C733.297 319.18 733.896 319.46 734.49 319.696Z" fill="#7E8182"/>
<path d="M726.848 331.688C718.169 331.688 710.175 327.952 710.175 327.952C710.175 327.952 710.304 322.28 710.344 317.316C714.285 319.245 718.715 320.331 723.4 320.331C726.429 320.331 729.352 319.877 732.107 319.036C732.888 319.288 733.683 319.509 734.491 319.696C736.671 320.561 738.811 320.827 740.613 320.827C743.279 320.827 745.212 320.247 745.464 320.168C745.472 320.167 745.48 320.165 745.489 320.164C741.468 329.201 733.931 331.688 726.848 331.688Z" fill="#4869A2"/>
<path d="M723.4 260.852C716.86 260.852 710.833 262.988 705.924 266.565L705.923 266.535C697.307 270.379 693.675 268.36 692.433 267.185V207.912C692.433 203.399 688.776 199.74 684.263 199.74H518.904C514.391 199.74 510.733 203.399 510.733 207.912V267.088C511.871 268.241 515.456 270.489 524.319 266.535V266.565C529.228 262.988 535.255 260.852 541.795 260.852C558.22 260.852 571.535 274.167 571.535 290.591C571.535 307.016 558.22 320.331 541.795 320.331C535.601 320.331 529.852 318.435 525.089 315.195L525.091 315.199C525.091 315.199 515.504 308.884 510.733 314.656V373.271C510.733 377.784 514.391 381.441 518.904 381.441H590.287C596.121 386.203 589.745 395.844 589.745 395.844H589.747C586.508 400.605 584.613 406.355 584.613 412.548C584.613 428.974 597.928 442.288 614.353 442.288C630.777 442.288 644.092 428.974 644.092 412.548C644.092 406.015 641.98 399.979 638.409 395.072C634.405 386.099 636.761 382.532 637.9 381.441H684.263C688.776 381.441 692.433 377.784 692.433 373.271V314.539C697.237 308.968 706.695 315.199 706.695 315.199V315.195C711.457 318.435 717.205 320.331 723.4 320.331C739.824 320.331 753.139 307.016 753.139 290.591C753.139 274.167 739.824 260.852 723.4 260.852Z" fill="#406FBF"/>
<path d="M566.036 381.123L542.616 381.084C542.616 381.084 548.471 350.093 598.504 321.164C628.169 304.012 621.093 264.516 610.419 235.204C611.703 233.833 612.761 231.993 613.36 229.524C614.868 223.309 607.492 212.639 603.041 208.24C603.041 208.24 606.043 201.32 605.631 201.32C605.417 201.32 601.279 201.367 595.02 201.44C594.407 200.343 594.06 199.752 594.06 199.752H609.149C609.149 199.752 644.927 236.792 643.215 290.437C641.343 349.117 586.563 319.773 569.912 349.117C553.261 378.461 566.036 381.123 566.036 381.123Z" fill="#5D87CD"/>
<path d="M671.467 381.123H650.499C650.499 381.123 650.498 364.321 669.968 347.927C689.437 331.531 692.433 330.129 692.433 330.129V343.315C692.433 343.315 671.505 351.183 667.919 361.851C664.332 372.52 671.467 381.123 671.467 381.123Z" fill="#5D87CD"/>
<path d="M583.639 247.841C576.464 247.841 569.445 245.781 569.445 245.781C567.81 246.601 565.993 246.941 564.104 246.941C554.982 246.941 544.189 239.021 544.189 239.021C542.07 241.391 539.791 242.155 537.731 242.155C533.983 242.153 530.961 239.624 530.961 239.624L528.632 202.224C528.632 202.224 573.898 201.685 595.02 201.44C597.533 205.945 604.524 219.02 610.419 235.204C607.224 238.609 602.632 239.104 600.233 239.104C599.25 239.104 598.636 239.021 598.636 239.021L595.836 244.203C592.916 246.992 588.245 247.841 583.639 247.841Z" fill="#2251AA"/>
<path d="M610.419 235.204C604.524 219.02 597.533 205.945 595.02 201.44C601.279 201.367 605.417 201.32 605.631 201.32C606.043 201.32 603.041 208.24 603.041 208.24C607.492 212.639 614.868 223.309 613.36 229.524C612.761 231.993 611.703 233.833 610.419 235.204Z" fill="#335BA8"/>
<path d="M641.766 138.295C639.802 139.277 566.555 128.853 552.8 135.731C539.044 142.608 515.659 180.353 515.167 192.143C514.676 203.933 526.272 236.931 526.763 238.896C527.253 240.86 536.932 241.103 539.536 228.088C540.027 225.632 540.517 218.753 540.517 218.753C540.517 218.753 557.712 251.668 573.924 236.931C573.924 236.931 581.767 245.999 587.916 240.728C594.065 235.456 592.592 233 592.592 233C592.592 233 604.381 236.439 604.873 226.613C605.364 216.789 597.013 209.42 597.013 209.42L605.856 196.156C605.856 196.156 652.286 204.341 664.806 195.664C674.014 189.284 674.14 185.839 674.14 185.839L771.397 1.69878H689.876L641.766 138.295Z" fill="#F3626F"/>
<path d="M592.704 231.188C589.071 228.879 585.449 226.563 582.485 223.579C581.027 222.112 579.117 219.579 577.539 216.912C575.956 214.249 574.703 211.416 574.484 209.461C574.445 209.139 574.428 208.805 574.428 208.463C574.415 204.909 576.461 200.355 578.973 196.08C581.48 191.795 584.415 187.777 586.116 185.085C586.313 184.773 586.22 184.363 585.908 184.165C585.597 183.969 585.185 184.063 584.989 184.373C583.332 186.999 580.372 191.052 577.823 195.407C575.277 199.771 573.107 204.424 573.095 208.463C573.095 208.853 573.115 209.237 573.159 209.615C573.437 211.937 574.763 214.831 576.392 217.591C578.025 220.347 579.963 222.929 581.539 224.517C584.645 227.641 588.356 230.001 591.988 232.313C592.299 232.511 592.711 232.419 592.909 232.108C593.107 231.797 593.015 231.385 592.704 231.188Z" fill="#F04056"/>
<path d="M576.552 238.503C571.612 234.503 569.019 231.573 564.449 226.171C561.649 222.859 558.496 218.472 555.972 214.277C553.887 210.819 552.412 207.035 552.415 203.341C552.416 201.625 552.729 199.928 553.445 198.263C554.604 195.564 558.276 188.747 561.64 182.651C563.323 179.599 564.932 176.719 566.121 174.603C567.309 172.487 568.075 171.137 568.076 171.133C568.257 170.813 568.145 170.407 567.825 170.224C567.505 170.043 567.097 170.156 566.916 170.476C566.916 170.477 563.843 175.895 560.472 182.007C557.099 188.125 553.44 194.905 552.22 197.735C551.428 199.575 551.081 201.463 551.081 203.341C551.085 207.392 552.673 211.38 554.829 214.965C557.396 219.227 560.577 223.655 563.431 227.031C567.997 232.432 570.696 235.48 575.712 239.54C575.999 239.771 576.419 239.727 576.651 239.441C576.881 239.155 576.837 238.735 576.552 238.504" fill="#F04056"/>
<path d="M548.221 229.093C542.891 222.791 537.349 211.285 534.549 202.517C534.431 202.147 534.364 201.659 534.365 201.075C534.36 199.247 535.013 196.532 536.097 193.421C539.344 184.067 546.379 171.04 550.185 164.689C550.375 164.373 550.272 163.964 549.956 163.775C549.64 163.585 549.231 163.688 549.041 164.004C546.479 168.283 542.493 175.501 539.14 182.66C537.463 186.24 535.943 189.803 534.837 192.984C533.735 196.169 533.036 198.955 533.032 201.075C533.032 201.756 533.104 202.373 533.28 202.924C536.143 211.852 541.681 223.403 547.203 229.953C547.44 230.235 547.861 230.271 548.143 230.033C548.424 229.796 548.46 229.375 548.221 229.093Z" fill="#F04056"/>
<path d="M606.004 197.635C609.352 195.376 612.112 192.265 613.953 188.671C614.121 188.344 613.992 187.941 613.664 187.773C613.336 187.605 612.935 187.736 612.767 188.063C611.031 191.455 608.417 194.4 605.259 196.529C604.953 196.735 604.872 197.149 605.079 197.455C605.284 197.76 605.699 197.84 606.004 197.635Z" fill="#F04056"/>
<path d="M301.979 266.565V207.951C301.979 203.437 298.32 199.779 293.807 199.779H230.265C226.273 194.788 231.825 186.396 231.825 186.396H231.824C235.063 181.635 236.957 175.885 236.957 169.692C236.957 153.267 223.643 139.952 207.217 139.952C190.793 139.952 177.479 153.267 177.479 169.692C177.479 176.224 179.591 182.261 183.161 187.168C186.335 194.281 185.509 197.999 184.464 199.779H128.448C123.936 199.779 120.277 203.437 120.277 207.951V373.308C120.277 377.821 123.936 381.48 128.448 381.48H293.807C298.32 381.48 301.979 377.821 301.979 373.308V314.132C300.84 312.98 297.255 310.732 288.393 314.687L288.392 314.656C283.483 318.233 277.456 320.369 270.916 320.369C254.492 320.369 241.177 307.055 241.177 290.629C241.177 274.205 254.492 260.889 270.916 260.889C277.111 260.889 282.859 262.787 287.621 266.027V266.021C287.621 266.021 297.208 272.337 301.979 266.565Z" fill="#406FBF"/>
<path d="M175.479 344.485C173.449 341.913 171.536 340.592 171.536 340.592L170.311 335.215C166.712 323.685 155.632 322.848 155.403 322.832C153.949 321.855 152.259 320.971 150.307 320.189C166.276 316.217 183.141 309.425 185.525 298.24C190.203 276.292 213.949 243.912 234.457 229.88C254.965 215.848 245.971 199.779 245.971 199.779H283.029C283.029 199.779 243.812 233.477 224.637 252.547C205.464 271.615 203.875 298.96 192.361 326.736C189.381 333.927 183.121 339.772 175.479 344.485Z" fill="#5D87CD"/>
<path d="M120.277 310.373V285.003C123.322 278.497 126.003 271.992 126.658 268.057C127.399 263.615 126.689 260.219 125.299 257.907C127.125 259.04 129.277 261.451 130.433 266.568C132.687 276.552 120.277 310.373 120.277 310.373Z" fill="#2251AA"/>
<path d="M178.947 381.48L169.525 381.331C169.769 376.041 167.901 369.505 167.901 369.505C167.901 369.505 172.153 363.552 171.728 355.899C171.577 353.183 170.409 350.467 168.964 348.092C171.211 346.971 173.397 345.769 175.479 344.485C178.411 348.201 181.588 354.529 179.605 363.259C178.835 366.649 174.735 372.72 174.735 372.72L178.947 381.48Z" fill="#2251AA"/>
<path d="M168.964 348.092C166.337 343.777 162.799 340.592 162.799 340.592C163.711 333.609 162.019 327.276 155.403 322.832C155.632 322.848 166.712 323.685 170.311 335.215L171.536 340.592C171.536 340.592 173.449 341.913 175.479 344.485C173.397 345.769 171.211 346.971 168.964 348.092Z" fill="#335BA8"/>
<path d="M92.4792 415.855C92.4792 415.855 81.5885 338.467 80.313 319.333C79.0374 300.2 113.903 255.727 118.155 254.451C122.407 253.176 128.359 257.852 126.658 268.057C124.958 278.261 109.651 305.727 109.651 305.727L112.202 323.585C112.202 323.585 129.635 314.656 144.941 318.483C160.248 322.309 164.075 330.813 162.799 340.592C162.799 340.592 171.303 348.245 171.728 355.899C172.153 363.552 167.901 369.505 167.901 369.505C167.901 369.505 171.303 381.411 168.327 386.087C165.351 390.764 147.068 397.993 147.068 397.993C147.068 397.993 153.715 431.045 137.04 442.285C137.04 442.285 111.758 534.21 112.319 534.116H31.376C31.376 534.116 79.803 439.469 83.2041 432.667C86.6062 425.864 92.4792 415.855 92.4792 415.855Z" fill="#F89FAB"/>
<path d="M147.628 397.74L143.121 376.899C144.772 377.199 146.105 378.475 146.935 379.933C147.765 381.392 148.179 383.043 148.672 384.647C149.199 386.356 149.829 388.065 149.905 389.852C150.024 392.616 148.812 395.241 147.628 397.74Z" fill="#D78186"/>
<path d="M148.289 402.027C147.045 394.689 145.801 387.353 144.559 380.017C144.431 379.288 144.3 378.441 143.8 377.665C143.348 376.985 142.601 376.439 141.683 376.425C141.528 376.425 141.369 376.443 141.211 376.481C140.853 376.568 140.633 376.928 140.72 377.287C140.807 377.644 141.167 377.864 141.525 377.777L141.683 377.759C141.995 377.745 142.445 378.017 142.683 378.393C142.989 378.855 143.124 379.512 143.244 380.24C144.488 387.576 145.731 394.913 146.975 402.249C147.037 402.612 147.381 402.857 147.744 402.795C148.107 402.733 148.352 402.389 148.289 402.027Z" fill="#F03F4E"/>
<path d="M118.625 339.836C126.104 335.229 134.348 332.873 141.929 332.875C150.055 332.877 157.391 335.569 162.304 341.037C162.549 341.312 162.971 341.335 163.245 341.088C163.519 340.843 163.541 340.42 163.295 340.147C158.076 334.339 150.339 331.54 141.929 331.541C134.073 331.543 125.605 333.973 117.925 338.7C117.612 338.893 117.515 339.304 117.707 339.617C117.901 339.931 118.311 340.029 118.625 339.836Z" fill="#F03F4E"/>
<path d="M168.52 369.255C167.253 366.135 166.056 363.175 164.325 360.689C162.599 358.205 160.301 356.205 156.955 355.123C155.075 354.512 152.863 354.247 150.517 354.247C144.459 354.255 137.508 356.011 133.225 358.669C132.913 358.864 132.817 359.276 133.012 359.588C133.206 359.901 133.617 359.996 133.931 359.801C137.885 357.324 144.723 355.571 150.517 355.579C152.761 355.579 154.848 355.839 156.543 356.391C159.599 357.389 161.615 359.143 163.232 361.452C164.844 363.761 166.021 366.635 167.284 369.756C167.421 370.096 167.811 370.261 168.152 370.123C168.493 369.984 168.657 369.596 168.52 369.255Z" fill="#F03F4E"/>
<path d="M145.636 383.863C148.188 381.479 151.545 379.949 155.02 379.589C155.387 379.551 155.652 379.224 155.615 378.857C155.576 378.491 155.248 378.225 154.883 378.263C151.112 378.656 147.497 380.303 144.725 382.888C144.456 383.14 144.441 383.561 144.693 383.831C144.944 384.1 145.367 384.115 145.636 383.863Z" fill="#F03F4E"/>
<path d="M108.652 327.237C112.044 324.252 117.54 322.104 122.867 320.672C128.195 319.235 133.356 318.491 136.105 318.2C136.472 318.161 136.737 317.833 136.699 317.467C136.66 317.101 136.332 316.836 135.965 316.875C133.156 317.172 127.945 317.923 122.52 319.385C117.095 320.853 111.46 323.009 107.773 326.235C107.496 326.477 107.468 326.899 107.711 327.175C107.954 327.452 108.375 327.48 108.652 327.237Z" fill="#F03F4E"/>
<path d="M270.916 320.369C268.584 320.369 266.313 320.1 264.135 319.592C266.041 319.879 271.633 320.261 273.353 320.261C273.392 320.261 273.428 320.261 273.461 320.26C272.623 320.332 271.775 320.369 270.916 320.369Z" fill="white"/>
<path d="M244.392 381.48H217.807C215.352 356.656 263.759 319.527 263.759 319.527C263.859 319.548 263.985 319.571 264.135 319.592C266.313 320.1 268.584 320.369 270.916 320.369C271.775 320.369 272.623 320.332 273.461 320.26C273.564 320.259 273.649 320.256 273.713 320.252C271.459 321.496 244.343 344.884 233.757 362.209C222.715 380.284 244.392 381.48 244.392 381.48Z" fill="#5D87CD"/>
<path d="M273.745 320.235C273.791 320.212 273.824 320.2 273.843 320.2C273.856 320.2 273.863 320.205 273.863 320.217C273.863 320.22 273.863 320.221 273.86 320.224C273.823 320.228 273.784 320.231 273.745 320.235Z" fill="white"/>
<path d="M273.713 320.252C273.725 320.245 273.736 320.24 273.745 320.235C273.784 320.231 273.823 320.228 273.86 320.224C273.848 320.236 273.797 320.245 273.713 320.252Z" fill="#5D87CD"/>
<path d="M393.348 388.277C393.348 388.277 402.275 376.279 416.837 370.217C431.399 364.156 435.125 365.171 437.255 369.2C439.384 373.228 429.456 385.831 425.185 389.321C420.916 392.811 394.465 410.622 394.465 410.622L393.348 388.277Z" fill="#F46C3A"/>
<path d="M532.381 260.889C525.843 260.889 519.815 263.025 514.905 266.604V266.572C506.835 270.175 503.142 268.629 501.686 267.453V207.951C501.686 203.437 498.028 199.779 493.515 199.779H328.156C323.644 199.779 319.985 203.437 319.985 207.951V267.823C314.961 271.304 306.957 266.021 306.957 266.021V266.027C302.196 262.787 296.447 260.889 290.253 260.889C273.828 260.889 260.513 274.205 260.513 290.629C260.513 307.055 273.828 320.369 290.253 320.369C296.792 320.369 302.82 318.233 307.729 314.656V314.687C314.413 311.704 318.087 312.256 319.985 313.2V373.308C319.985 377.821 323.644 381.48 328.156 381.48H493.515C498.028 381.48 501.686 377.821 501.686 373.308V314.251C506.566 309.221 515.677 315.237 515.677 315.237V315.232C520.439 318.472 526.188 320.369 532.381 320.369C548.807 320.369 562.121 307.055 562.121 290.629C562.121 274.205 548.807 260.889 532.381 260.889Z" fill="#17282F"/>
<path d="M415.943 400.713L409.645 400.307C411.025 399.36 412.411 398.408 413.757 397.477H423.543L415.943 400.713ZM424.325 397.145H414.24C419.248 393.681 423.651 390.576 425.185 389.321C426.967 387.865 429.733 384.823 432.197 381.48H458.372L457.909 382.847L424.325 397.145Z" fill="#8C8F8F"/>
<path d="M423.543 397.477H413.757C413.919 397.367 414.079 397.256 414.24 397.145H424.325L423.543 397.477Z" fill="#767A7C"/>
<path d="M393.899 399.287L379.184 398.335L377.208 397.161C377.908 397.368 378.648 397.477 379.412 397.477H393.808L393.899 399.287ZM393.791 397.145H379.412C375.287 397.145 371.931 393.788 371.931 389.661V381.48H399.079L398.997 382.116C395.347 385.589 393.348 388.277 393.348 388.277L393.791 397.145ZM373.901 395.199L350.787 381.48H371.597V389.661C371.597 391.823 372.479 393.783 373.901 395.199Z" fill="#8C8F8F"/>
<path d="M393.808 397.477H379.412C378.648 397.477 377.908 397.368 377.208 397.161L373.901 395.199C372.479 393.783 371.597 391.823 371.597 389.661V381.48H371.931V389.661C371.931 393.788 375.287 397.145 379.412 397.145H393.791L393.808 397.477Z" fill="#767A7C"/>
<path d="M409.645 400.307L393.899 399.287L393.808 397.477L393.791 397.145L393.348 388.277C393.348 388.277 395.347 385.589 398.997 382.116L398.517 385.843L420.228 381.48H432.197C429.733 384.823 426.967 387.865 425.185 389.321C423.651 390.576 419.248 393.681 414.24 397.145C414.079 397.256 413.919 397.367 413.757 397.477C412.411 398.408 411.025 399.36 409.645 400.307Z" fill="#964121"/>
<path d="M458.372 381.48H420.228C420.228 381.48 427.501 338.264 443.643 332.757L449.971 346.881C449.971 346.881 460.127 330.487 475.563 330.487C475.58 330.487 475.596 330.487 475.613 330.487L458.372 381.48ZM399.079 381.48H371.931H371.597H350.787L342.221 376.396C342.221 376.396 367.201 371.927 379.184 370.972H383.943C383.943 370.972 386.239 333.349 405.464 331.936L399.079 381.48Z" fill="#0C1418"/>
<path d="M486.437 199.779H476.34C476.329 199.767 476.319 199.753 476.308 199.74L486.437 199.779Z" fill="white"/>
<path d="M320.712 350.511C320.468 350.511 320.224 350.508 319.985 350.504V332.757C325.471 332.863 331.253 333.255 336.989 333.255C342.797 333.255 348.555 332.853 353.901 331.344C364.527 328.344 374.656 321.632 379.083 311.517C381.279 306.5 381.961 300.975 383.335 295.673C387.565 279.339 398.805 264.947 413.627 256.883C430.572 247.665 451.971 246.217 465.743 232.711C473.451 225.152 477.773 214.261 477.347 203.473C477.296 202.176 477.145 200.793 476.34 199.779H486.437L494.183 199.808C494.609 210.596 477.559 236.775 469.851 244.333C456.079 257.84 430.064 257.676 413.12 266.895C398.297 274.957 391.673 290.961 387.441 307.296C386.068 312.597 385.387 318.123 383.191 323.14C378.764 333.255 368.635 339.967 358.009 342.967C347.613 345.901 331.732 350.511 320.712 350.511Z" fill="#405158"/>
<path d="M328.745 539.024C328.9 535.553 352.999 433.98 352.999 433.98C366.597 421.004 392.636 422.268 404.796 420.539C433.733 416.422 433.183 407.896 433.183 407.896C433.183 407.896 449.367 409.192 456.456 398.905C460.125 393.583 483.855 330.576 483.855 330.576C483.855 330.576 479.4 325.264 468.36 335.873C457.319 346.481 449.755 372.273 449.755 372.273C449.755 372.273 457.763 336.767 457.909 330.487C458.056 324.207 445.668 326.061 441.732 336.317C437.796 346.575 424.673 379.829 424.673 379.829C421.188 385.376 416.923 389.121 411.317 389.777C411.317 389.777 415.959 338.376 415.943 332.757C415.925 327.139 405.187 327.997 400.589 338.091C395.992 348.184 389.753 376.076 389.753 376.076C389.753 376.076 338.827 373.545 330.072 379.159C313.217 389.967 256.948 539.024 256.948 539.024H328.745Z" fill="#F7965D"/>
<path d="M445.263 402.493C445.932 403.053 453.191 409.462 462.385 405.668C471.58 401.875 482.653 395.561 494.911 390.008C507.167 384.456 508.239 383.988 500.687 379.835C493.135 375.681 481.08 380.72 472.903 383.432C464.725 386.144 457.008 388.444 457.008 388.444L445.263 402.493Z" fill="#F7965D"/>
<path d="M433.701 408.496C437.971 404.827 442.271 396.827 446.479 383.995C450.677 371.164 454.748 353.505 458.403 330.565C458.447 330.293 458.26 330.036 457.988 329.993C457.715 329.949 457.459 330.136 457.416 330.408C453.767 353.312 449.703 370.929 445.528 383.684C441.361 396.437 437.047 404.331 433.051 407.736C432.841 407.916 432.816 408.232 432.996 408.441C433.176 408.652 433.491 408.676 433.701 408.496Z" fill="#F46C3A"/>
<path d="M395.033 404.884C400.765 404.333 404.68 403.209 407.631 400.749C408.055 400.389 408.377 399.841 408.7 399.111C409.884 396.385 410.924 390.949 411.867 384.237C414.679 364.127 416.441 332.792 416.441 332.785C416.457 332.511 416.247 332.273 415.971 332.259C415.695 332.243 415.459 332.453 415.443 332.729C415.443 332.732 415.388 333.719 415.28 335.459C414.904 341.549 413.895 356.84 412.427 371.061C411.693 378.171 410.844 385.015 409.905 390.296C409.436 392.936 408.943 395.187 408.437 396.873C407.945 398.556 407.375 399.688 406.991 399.981C404.276 402.247 400.6 403.344 394.939 403.888C394.663 403.915 394.461 404.159 394.488 404.435C394.515 404.709 394.759 404.911 395.033 404.884Z" fill="#F46C3A"/>
<path d="M447.099 406.408C449.881 405.428 452.477 403.181 454.736 400.573C456.991 397.961 458.9 394.977 460.241 392.477C460.933 391.184 462.644 387.127 464.887 381.597C468.245 373.313 472.764 361.789 476.615 351.74C480.467 341.683 483.639 333.136 484.335 330.715C484.411 330.448 484.257 330.172 483.992 330.096C483.727 330.02 483.449 330.173 483.373 330.439C482.933 331.976 481.367 336.323 479.237 342.007C476.04 350.539 471.561 362.125 467.635 372.04C465.672 376.997 463.847 381.536 462.388 385.065C460.933 388.589 459.833 391.127 459.36 392.005C458.049 394.448 456.171 397.383 453.979 399.919C451.789 402.459 449.279 404.588 446.768 405.464C446.507 405.556 446.369 405.841 446.461 406.101C446.552 406.363 446.837 406.5 447.099 406.408Z" fill="#F46C3A"/>
</g>
<defs>
<clipPath id="clip0_228_1178">
<rect width="1000" height="542.293" fill="white"/>
</clipPath>
</defs>
</svg>
