<?xml version="1.0"?>
<svg width="500" height="500" xmlns="http://www.w3.org/2000/svg" xmlns:svg="http://www.w3.org/2000/svg" enable-background="new 0 0 500 500" version="1.1" xml:space="preserve">
 <g class="layer">
  <title>Layer 1</title>
  <g id="Background_2">
   <g id="svg_1">
    <g id="svg_2">
     <g id="svg_3">
      <g id="svg_4">
       <rect fill="#D1E3FF" height="0.25" id="svg_5" width="500" y="382.4"/>
       <rect fill="#D1E3FF" height="0.25" id="svg_6" width="23.25" x="422.33" y="388.83"/>
       <rect fill="#D1E3FF" height="0.25" id="svg_7" width="110.43" x="250.57" y="394.26"/>
       <rect fill="#D1E3FF" height="0.25" id="svg_8" width="10.83" x="192.5" y="394.39"/>
       <rect fill="#D1E3FF" height="0.25" id="svg_9" width="37.56" x="78" y="391.39"/>
       <rect fill="#D1E3FF" height="0.25" id="svg_10" width="21.98" x="390.67" y="388.83"/>
       <rect fill="#D1E3FF" height="0.25" id="svg_11" width="18.19" x="51.65" y="391.39"/>
       <path d="m237.01,337.8l-193.1,0c-3.14,0 -5.7,-2.56 -5.7,-5.71l0,-271.43c0,-3.15 2.56,-5.71 5.7,-5.71l193.1,0c3.15,0 5.71,2.56 5.71,5.71l0,271.43c0,3.15 -2.56,5.71 -5.71,5.71zm-193.1,-282.6c-3.01,0 -5.45,2.45 -5.45,5.46l0,271.43c0,3.01 2.44,5.46 5.45,5.46l193.1,0c3.01,0 5.46,-2.45 5.46,-5.46l0,-271.43c0,-3.01 -2.45,-5.46 -5.46,-5.46l-193.1,0z" fill="#D1E3FF" id="svg_12"/>
       <path d="m453.31,337.8l-193.1,0c-3.14,0 -5.71,-2.56 -5.71,-5.71l0,-271.43c0,-3.15 2.57,-5.71 5.71,-5.71l193.1,0c3.15,0 5.71,2.56 5.71,5.71l0,271.43c0,3.15 -2.56,5.71 -5.71,5.71zm-193.1,-282.6c-3.01,0 -5.46,2.45 -5.46,5.46l0,271.43c0,3.01 2.45,5.46 5.46,5.46l193.1,0c3.01,0 5.46,-2.45 5.46,-5.46l0,-271.43c0,-3.01 -2.45,-5.46 -5.46,-5.46l-193.1,0z" fill="#D1E3FF" id="svg_13"/>
      </g>
     </g>
    </g>
    <g id="svg_14">
     <g id="svg_15">
      <g id="svg_16">
       <g id="svg_17">
        <rect fill="#D1E3FF" height="131.57" id="svg_18" transform="matrix(-1 -1.224647e-16 1.224647e-16 -1 722.7029 278.6665)" width="75.57" x="323.56" y="73.55"/>
        <rect fill="#F3F8FF" height="131.57" id="svg_19" transform="matrix(-1 -1.224647e-16 1.224647e-16 -1 714.5361 278.6665)" width="75.57" x="319.48" y="73.55"/>
        <rect fill="#FFFFFF" height="60.91" id="svg_20" transform="matrix(-1.836970e-16 1 -1 -1.836970e-16 496.6013 -217.9348)" width="119.22" x="297.66" y="108.88"/>
        <rect fill="#D1E3FF" height="3.09" id="svg_21" transform="matrix(-1.836970e-16 1 -1 -1.836970e-16 467.6875 -189.021)" width="119.22" x="268.75" y="137.79"/>
        <rect fill="#F3F8FF" height="8.29" id="svg_22" transform="matrix(-1 -1.224647e-16 1.224647e-16 -1 714.5361 332.0631)" width="69.51" x="322.51" y="161.89"/>
       </g>
      </g>
     </g>
     <g id="svg_23">
      <g id="svg_24">
       <g id="svg_25">
        <rect fill="#D1E3FF" height="131.57" id="svg_26" transform="matrix(-1 -1.224647e-16 1.224647e-16 -1 465.8543 278.6665)" width="75.57" x="195.14" y="73.55"/>
        <rect fill="#F3F8FF" height="131.57" id="svg_27" transform="matrix(-1 -1.224647e-16 1.224647e-16 -1 457.6875 278.6665)" width="75.57" x="191.06" y="73.55"/>
        <rect fill="#FFFFFF" height="60.91" id="svg_28" transform="matrix(-1.836970e-16 1 -1 -1.836970e-16 368.177 -89.5105)" width="119.22" x="169.24" y="108.88"/>
        <rect fill="#D1E3FF" height="3.09" id="svg_29" transform="matrix(-1.836970e-16 1 -1 -1.836970e-16 339.2632 -60.5967)" width="119.22" x="140.32" y="137.79"/>
        <rect fill="#F3F8FF" height="8.29" id="svg_30" transform="matrix(-1 -1.224647e-16 1.224647e-16 -1 457.6875 332.0631)" width="69.51" x="194.09" y="161.89"/>
       </g>
      </g>
     </g>
     <g id="svg_31">
      <g id="svg_32">
       <g id="svg_33">
        <rect fill="#D1E3FF" height="131.57" id="svg_34" transform="matrix(-1 -1.224647e-16 1.224647e-16 -1 209.0057 278.6665)" width="75.57" x="66.72" y="73.55"/>
        <rect fill="#F3F8FF" height="131.57" id="svg_35" transform="matrix(-1 -1.224647e-16 1.224647e-16 -1 200.8389 278.6665)" width="75.57" x="62.63" y="73.55"/>
        <rect fill="#FFFFFF" height="60.91" id="svg_36" transform="matrix(-1.836970e-16 1 -1 -1.836970e-16 239.7527 38.9138)" width="119.22" x="40.81" y="108.88"/>
        <rect fill="#D1E3FF" height="3.09" id="svg_37" transform="matrix(-1.836970e-16 1 -1 -1.836970e-16 210.8389 67.8276)" width="119.22" x="11.9" y="137.79"/>
        <rect fill="#F3F8FF" height="8.29" id="svg_38" transform="matrix(-1 -1.224647e-16 1.224647e-16 -1 200.8389 332.0631)" width="69.51" x="65.66" y="161.89"/>
       </g>
      </g>
     </g>
     <g id="svg_39">
      <g id="svg_40">
       <path d="m140.02,286.52c-13.63,1.88 -22.06,-27.74 8.04,-52.82c-1.63,29.03 15.72,49.54 -8.04,52.82z" fill="#D1E3FF" id="svg_41"/>
       <path d="m130.02,325.31c-19.76,-13.85 -6.24,-62.24 54.91,-58.73c-26.46,35.62 -20.47,82.87 -54.91,58.73z" fill="#CADEFC" id="svg_42"/>
       <path d="m136.99,324.98c13.13,-14.14 -5.56,-49.73 -52.81,-36.73c26.67,23.42 29.91,61.39 52.81,36.73z" fill="#CADEFC" id="svg_43"/>
       <path d="m120.14,304.36c-4.54,-5.53 -9.9,-11.75 -8.6,-18.33c1.35,-6.63 4.55,-11.47 1.97,-18.47c-3.1,-8.4 -2.5,-18.42 2.74,-17.58c5.22,0.84 11.11,6.98 10.95,15.11c-0.09,7.88 5.05,10.4 9.9,14.59c4.82,4.16 6.71,10.31 7.58,16.36c1.53,9.53 13.87,7.73 17.16,16.01c3.38,7.99 -3.38,18.65 -14.19,21.1c-10.85,2.46 -18.51,3.97 -25.88,-4.46c-7.49,-8.96 5.09,-16.41 -1.63,-24.33z" fill="#F3F8FF" id="svg_44"/>
       <g id="svg_45">
        <polygon fill="#E3EEFF" id="svg_46" points="157.328,382.398 116.724,382.398 113.659,327.081 160.392,327.081       "/>
        <rect fill="#E3EEFF" height="5.96" id="svg_47" width="52.78" x="110.63" y="325.95"/>
       </g>
      </g>
     </g>
     <g id="svg_48">
      <rect fill="#E3EEFF" height="118.47" id="svg_49" transform="matrix(-1 -1.224647e-16 1.224647e-16 -1 820.7982 631.3082)" width="27.32" x="396.74" y="256.42"/>
      <rect fill="#E3EEFF" height="7.51" id="svg_50" transform="matrix(-1 -1.224647e-16 1.224647e-16 -1 601.4702 757.2899)" width="236.16" x="182.66" y="374.89"/>
      <rect fill="#F3F8FF" height="118.47" id="svg_51" width="219.33" x="177.41" y="256.42"/>
      <rect fill="#E3EEFF" height="38.85" id="svg_52" width="197.85" x="188.15" y="271"/>
      <rect fill="#E3EEFF" height="38.85" id="svg_53" width="197.85" x="188.15" y="321.45"/>
      <path d="m225.53,293.09l123.09,0c1.46,0 2.66,-1.2 2.66,-2.66l0,0c0,-1.47 -1.2,-2.67 -2.66,-2.67l-123.09,0c-1.46,0 -2.66,1.2 -2.66,2.67l0,0c0,1.46 1.2,2.66 2.66,2.66z" fill="#F3F8FF" id="svg_54"/>
      <path d="m225.53,343.55l123.09,0c1.46,0 2.66,-1.2 2.66,-2.67l0,0c0,-1.46 -1.2,-2.66 -2.66,-2.66l-123.09,0c-1.46,0 -2.66,1.2 -2.66,2.66l0,0c0,1.47 1.2,2.67 2.66,2.67z" fill="#F3F8FF" id="svg_55"/>
     </g>
     <g id="svg_56">
      <path d="m336.19,239.13c0,0 31.3,29.66 49.88,-0.12c0,0 -4.94,-9.57 -10.15,-10.39c-5.21,-0.82 -5.42,8.28 -10.03,5.47c-4.6,-2.81 -9.93,-12.42 -12.84,-7.28c-2.92,5.13 -6.93,-2.19 -11.3,-2.6c-4.37,-0.42 -5.56,14.92 -5.56,14.92z" fill="#F3F8FF" id="svg_57"/>
      <path d="m388.06,237.08c0,0 -0.68,19.34 -27.06,19.34c-26.37,0 -27.06,-19.34 -27.06,-19.34l54.12,0z" fill="#E3EEFF" id="svg_58"/>
     </g>
     <g id="svg_59">
      <path d="m254.61,227l15.19,0l0,29.42l-44.6,0l0,0c0,-16.25 13.17,-29.42 29.41,-29.42z" fill="#F3F8FF" id="svg_60"/>
      <rect fill="#D1E3FF" height="29.42" id="svg_61" width="14.01" x="269.8" y="227"/>
     </g>
    </g>
   </g>
  </g>
  <g display="none" id="Background_1">
   <path d="m208.69,124.91c-36.95,0.46 -67.33,-18.48 -98.43,10.72c-23.94,22.47 -28.37,56.49 -16.2,85.64c29.19,69.88 134.45,93.81 201.36,68.96c76.91,-28.56 132.54,-112.77 87.38,-173.33c-14.12,-18.94 -53.13,-36.57 -76.09,-36.03c-41.26,0.96 -57.19,43.52 -98.02,44.04z" display="inline" fill="#D4E8FF" id="svg_62" opacity="0.4"/>
  </g>
  <g id="Objects">
   <g id="svg_63">
    <ellipse cx="250" cy="416.24" fill="#F0F6FF" id="svg_64" rx="193.89" ry="11.32"/>
    <g id="svg_65">
     <g id="svg_66">
      <path d="m218.03,197.76c-0.28,0.41 -0.45,0.65 -0.66,0.95c-0.2,0.29 -0.41,0.55 -0.61,0.82c-0.42,0.54 -0.84,1.04 -1.27,1.55c-0.87,1 -1.75,1.97 -2.69,2.88c-1.86,1.83 -3.87,3.5 -5.97,5.04c-2.11,1.53 -4.34,2.88 -6.65,4.08c-1.17,0.58 -2.34,1.16 -3.55,1.64l-1.81,0.72l-0.5,0.19c-0.28,0.1 -0.55,0.2 -0.85,0.26c-0.59,0.14 -1.22,0.23 -1.85,0.22c-1.27,-0.01 -2.48,-0.37 -3.41,-0.86c-0.95,-0.49 -1.69,-1.08 -2.31,-1.67c-1.23,-1.19 -2.07,-2.4 -2.79,-3.6c-1.41,-2.41 -2.38,-4.79 -3.2,-7.2c-1.6,-4.81 -2.68,-9.57 -3.35,-14.51l4.18,-0.92c0.76,2.19 1.53,4.45 2.4,6.63c0.83,2.19 1.72,4.35 2.72,6.41c0.99,2.05 2.04,4.05 3.24,5.69c0.58,0.82 1.22,1.53 1.77,1.96c0.27,0.22 0.52,0.34 0.65,0.38c0.14,0.04 0.13,0 0.06,-0.02c-0.03,0 -0.06,-0.02 -0.07,-0.02c-0.01,0 0,-0.02 0.01,-0.02l0.32,-0.16l1.5,-0.72c0.99,-0.48 1.94,-1.05 2.91,-1.58c1.9,-1.13 3.72,-2.38 5.48,-3.71c1.74,-1.36 3.38,-2.83 4.92,-4.39c0.79,-0.77 1.53,-1.58 2.24,-2.39c0.35,-0.41 0.7,-0.83 1.03,-1.24l0.48,-0.61l0.39,-0.52l7.24,4.72z" fill="#CE7A63" id="svg_67"/>
      <polygon fill="#14365B" id="svg_68" points="205.889,197.333 210.959,209.487 207.293,211.784 201.593,200.747     "/>
      <path d="m220.24,187.09c-8.27,-0.11 -16.67,10.36 -16.88,10.62l6.55,15.38c0,0 14.54,-11.81 15.27,-16.43c0.76,-4.81 0.3,-9.5 -4.94,-9.57z" fill="#0053CC" id="svg_69"/>
      <path d="m180.03,185.77l-5.72,-4.45l-1.16,8.76c0,0 5.56,2.18 8.52,0.29l-0.08,-1.6c-0.06,-1.18 -0.63,-2.27 -1.56,-3z" fill="#CE7A63" id="svg_70"/>
      <polygon fill="#CE7A63" id="svg_71" points="166.663,180.875 167.02,187.535 173.153,190.076 174.306,181.322     "/>
      <path d="m291.95,185.06l8.84,-2.21l-6.18,-6.31c0,0 -5.73,2.34 -4.34,7.34l1.68,1.18z" fill="#CE7A63" id="svg_72"/>
      <polygon fill="#CE7A63" id="svg_73" points="305.231,181.278 304.5,174.338 294.613,176.543 300.791,182.852     "/>
      <polygon fill="#CE7A63" id="svg_74" points="263.165,407.467 254.936,408.265 248.074,388.837 256.303,388.04     "/>
      <polygon fill="#CE7A63" id="svg_75" points="351.273,366.64 345.207,372.522 329.635,360.364 335.702,354.482     "/>
      <path d="m343.46,371.38l4.66,-8.27c0.17,-0.3 0.51,-0.42 0.83,-0.3l7.08,2.74c0.73,0.29 1.04,1.23 0.64,1.92c-1.67,2.86 -2.62,4.15 -4.67,7.79c-1.26,2.24 -3.72,7.37 -5.46,10.46c-1.71,3.02 -4.89,1.53 -4.45,0.09c2.01,-6.47 1.67,-10.08 1.13,-12.94c-0.1,-0.52 -0.01,-1.05 0.24,-1.49z" fill="#14365B" id="svg_76"/>
      <path d="m253.3,405.74l10.03,0c0.36,0 0.69,0.26 0.79,0.61l2.18,7.93c0.22,0.83 -0.38,1.6 -1.22,1.59c-3.51,-0.06 -5.22,-0.27 -9.63,-0.27c-2.71,0 -11.54,0.29 -15.29,0.29c-3.66,0 -4.43,-3.71 -2.91,-4.04c6.8,-1.51 12.54,-3.58 14.63,-5.56c0.38,-0.35 0.89,-0.55 1.42,-0.55z" fill="#14365B" id="svg_77"/>
      <polygon fill="#BC6753" id="svg_78" points="248.078,388.842 251.613,398.857 260.128,398.857 256.31,388.044     "/>
      <polygon fill="#BC6753" id="svg_79" points="335.707,354.484 329.638,360.369 337.668,366.633 343.737,360.748     "/>
      <path d="m212.19,189.76c0,0 -3.4,2.59 19.51,47.3c12.96,-4.19 26.35,-8.51 32.66,-10.54c-4.84,-13.12 -7.5,-21.31 -9.96,-50.64c0,0 -7.32,0.72 -14.45,2.65c-9.66,2.61 -14.28,4.55 -14.83,4.79c-6.19,2.63 -12.93,6.44 -12.93,6.44z" fill="#0053CC" id="svg_80"/>
      <path d="m233.09,162.31c0.6,5.07 2.49,14.11 6.86,16.22c0,0 0.25,5.26 -8.61,8.12c-9.75,3.15 -6.22,-3.33 -6.22,-3.33c4.91,-2.99 3.5,-6.9 1.37,-10.3l6.6,-10.71z" fill="#CE7A63" id="svg_81"/>
      <g id="svg_82">
       <path d="m216.7,187.34c2.41,-1.25 5.48,-2.77 8.42,-4.03c4.69,-2 9.25,-3.28 14.83,-4.79c2.85,-0.77 5.73,-1.36 8.16,-1.76c0.23,0.68 -0.47,2.44 -2.15,4.86c-5.35,4.45 -16.76,10.22 -25.17,10.01c-3.63,-1.37 -4.55,-2.82 -4.09,-4.29z" fill="#CE7A63" id="svg_83"/>
       <path d="m245.96,181.63c-2.32,3.32 -6.52,7.91 -12.88,12.75c-5.8,-0.86 -9.72,-1.79 -12.29,-2.75c8.41,0.21 19.82,-5.56 25.17,-10z" fill="#14365B" id="svg_84"/>
      </g>
      <path d="m230.4,166.67l-3.91,6.34c0.51,0.81 0.97,1.64 1.31,2.49c1.94,-0.95 4.41,-3.76 3.94,-5.96c-0.23,-1.1 -1.01,-2.43 -1.34,-2.87z" fill="#BC6753" id="svg_85"/>
      <path d="m235.07,152.92c0.5,8.37 0.89,11.9 -2.78,16.68c-5.53,7.18 -15.92,5.97 -18.92,-2.08c-2.69,-7.25 -3.06,-19.72 4.66,-24.02c7.62,-4.24 16.53,1.05 17.04,9.42z" fill="#CE7A63" id="svg_86"/>
      <ellipse cx="236.53" cy="134.49" fill="#0F264C" id="svg_87" rx="15.44" ry="15.44" transform="matrix(0.2217 -0.9751 0.9751 0.2217 52.9577 335.3215)"/>
      <path d="m232.69,141.2c3.18,2.1 4.76,5.32 3.53,7.19c-1.23,1.87 -4.81,1.69 -8,-0.41c-3.18,-2.1 -4.76,-5.32 -3.53,-7.19c1.23,-1.87 4.81,-1.69 8,0.41z" fill="#9FC6FF" id="svg_88"/>
      <path d="m231.02,158.63c0.83,-1.92 -2.06,-7.62 -1.44,-9.75c-1.66,-1.55 -18.49,3.93 -17.13,-0.07c1.3,-3.84 5.4,-8.93 14.76,-6.8c10.04,2.28 10.87,10.93 9.75,13.69c-1.13,2.76 -2.71,5.63 -2.71,5.63l-3.23,-2.7z" fill="#0F264C" id="svg_89"/>
      <path d="m237.28,160.26c0.03,1.73 -0.73,3.33 -1.73,4.35c-1.51,1.53 -3.33,0.43 -3.8,-1.55c-0.43,-1.78 -0.15,-4.73 1.79,-5.51c1.92,-0.78 3.69,0.72 3.74,2.71z" fill="#CE7A63" id="svg_90"/>
      <path d="m231.7,237.06c0,0 -15.14,73.84 -6.7,98.19c8.78,25.33 23.07,60.69 23.07,60.69l13.35,-0.76c0,0 -11.03,-44.69 -13.71,-64.86c-3.7,-27.82 12.18,-102.36 12.18,-102.36l-28.19,9.1z" fill="#9FC6FF" id="svg_91"/>
      <polygon fill="#0053CC" id="svg_92" points="262.474,395.5 247.02,396.386 244.542,390.313 261.583,388.542     "/>
      <path d="m247.71,242.74c-2.32,8.58 -0.38,21.44 4,30.46c1.07,-7.01 2.21,-13.78 3.29,-19.85c-2.25,-4.31 -4.73,-8.21 -7.29,-10.61z" fill="#77B3FC" id="svg_93"/>
      <path d="m240.32,234.27c0,0 22.48,53.69 37.37,83.23c12.01,23.86 56.53,48.83 56.53,48.83l7.97,-8.48c0,0 -33.27,-29.55 -41.57,-45.73c-26.56,-51.79 -21.1,-74.41 -36.27,-85.61l-24.03,7.76z" fill="#9FC6FF" id="svg_94"/>
      <polygon fill="#0053CC" id="svg_95" points="343.706,356.641 332.712,368.331 325.75,364.667 338.417,351.75     "/>
      <path d="m264.23,224.44l2.41,2.45c0.19,0.19 -0.01,0.51 -0.38,0.63l-34.25,11.05c-0.3,0.1 -0.59,0.03 -0.67,-0.15l-1.23,-2.83c-0.09,-0.19 0.11,-0.44 0.43,-0.55l33.08,-10.67c0.24,-0.08 0.49,-0.05 0.61,0.07z" fill="#14365B" id="svg_96"/>
      <path d="m260.98,229.57l0.88,-0.28c0.18,-0.06 0.29,-0.2 0.24,-0.3l-1.64,-3.67c-0.05,-0.1 -0.24,-0.14 -0.41,-0.09l-0.89,0.29c-0.17,0.06 -0.28,0.19 -0.23,0.3l1.64,3.66c0.05,0.11 0.23,0.15 0.41,0.09z" fill="#9FC6FF" id="svg_97"/>
      <path d="m234.6,238.09l0.88,-0.29c0.18,-0.06 0.29,-0.19 0.24,-0.3l-1.64,-3.66c-0.05,-0.11 -0.24,-0.15 -0.41,-0.09l-0.89,0.28c-0.17,0.06 -0.28,0.19 -0.23,0.3l1.64,3.67c0.05,0.1 0.23,0.14 0.41,0.09z" fill="#9FC6FF" id="svg_98"/>
      <path d="m247.79,233.83l0.88,-0.29c0.18,-0.05 0.29,-0.19 0.24,-0.29l-1.64,-3.67c-0.05,-0.11 -0.24,-0.15 -0.41,-0.09l-0.89,0.29c-0.17,0.05 -0.28,0.19 -0.23,0.29l1.64,3.67c0.05,0.1 0.23,0.15 0.41,0.09z" fill="#9FC6FF" id="svg_99"/>
      <path d="m222.75,156.78c0.08,0.67 -0.21,1.27 -0.65,1.32c-0.44,0.06 -0.87,-0.45 -0.95,-1.13c-0.08,-0.67 0.21,-1.27 0.65,-1.32c0.44,-0.05 0.87,0.45 0.95,1.13z" fill="#0F264C" id="svg_100"/>
      <path d="m215.1,157.71c0.09,0.68 -0.21,1.27 -0.65,1.32s-0.87,-0.45 -0.95,-1.12c-0.08,-0.68 0.21,-1.27 0.65,-1.33c0.44,-0.05 0.87,0.45 0.95,1.13z" fill="#0F264C" id="svg_101"/>
      <path d="m214.35,156.6l-1.68,-0.27c0,0 0.99,1.17 1.68,0.27z" fill="#0F264C" id="svg_102"/>
      <path d="m217.27,158.63c0,0 -0.8,3.05 -1.89,4.61c1,0.72 2.47,0.16 2.47,0.16l-0.58,-4.77z" fill="#BA4D3C" id="svg_103"/>
      <path d="m220.53,165.77c-0.1,0 -0.19,-0.07 -0.2,-0.17c-0.01,-0.11 0.07,-0.21 0.18,-0.23c2.96,-0.36 4.1,-2.6 4.11,-2.62c0.05,-0.1 0.17,-0.15 0.27,-0.1c0.1,0.05 0.14,0.17 0.09,0.27c-0.05,0.1 -1.24,2.46 -4.43,2.85c0,0 -0.01,0 -0.02,0z" fill="#0F264C" id="svg_104"/>
      <path d="m223.7,154.38c-0.09,0 -0.19,-0.04 -0.26,-0.1c-1.34,-1.16 -2.73,-0.79 -2.79,-0.77c-0.21,0.06 -0.44,-0.06 -0.5,-0.28c-0.06,-0.21 0.07,-0.43 0.28,-0.49c0.07,-0.02 1.85,-0.51 3.53,0.93c0.17,0.15 0.19,0.4 0.04,0.57c-0.08,0.09 -0.19,0.14 -0.3,0.14z" fill="#0F264C" id="svg_105"/>
      <path d="m211.15,154.62c-0.06,0 -0.12,-0.02 -0.18,-0.05c-0.2,-0.1 -0.27,-0.34 -0.18,-0.54c1,-1.97 2.83,-2.2 2.91,-2.21c0.22,-0.02 0.42,0.13 0.44,0.36c0.03,0.21 -0.13,0.41 -0.35,0.44l0,0c-0.06,0 -1.49,0.2 -2.28,1.78c-0.07,0.13 -0.21,0.22 -0.36,0.22z" fill="#0F264C" id="svg_106"/>
      <path d="m260.98,183.69l0.37,0.48l0.47,0.57c0.32,0.38 0.66,0.77 1,1.15c0.69,0.77 1.41,1.53 2.18,2.25c1.5,1.47 3.09,2.86 4.77,4.16c1.7,1.27 3.44,2.49 5.27,3.59c0.91,0.54 1.84,1.07 2.78,1.58l1.43,0.73l0.69,0.35c0.17,0.08 0.34,0.16 0.5,0.22c0.66,0.26 1.18,0.33 1.61,0.33c0.44,-0.02 0.87,-0.15 1.4,-0.52c1.08,-0.72 2.21,-2.33 3.09,-4.12c0.91,-1.81 1.63,-3.85 2.23,-5.95c0.63,-2.07 1.12,-4.29 1.53,-6.4l4.27,0.27c0.05,4.89 -0.45,9.61 -2.08,14.52c-0.41,1.23 -0.95,2.45 -1.65,3.68c-0.7,1.21 -1.59,2.46 -2.85,3.55c-1.23,1.1 -2.93,2.03 -4.78,2.35c-1.84,0.34 -3.67,0.11 -5.18,-0.36c-0.4,-0.11 -0.75,-0.25 -1.12,-0.39l-0.87,-0.36l-1.7,-0.71c-1.13,-0.51 -2.24,-1.04 -3.33,-1.62c-2.18,-1.16 -4.29,-2.45 -6.31,-3.9c-2,-1.46 -3.94,-3.01 -5.75,-4.74c-0.91,-0.86 -1.77,-1.77 -2.62,-2.71c-0.42,-0.47 -0.84,-0.95 -1.24,-1.46l-0.61,-0.78c-0.21,-0.28 -0.37,-0.5 -0.65,-0.9l7.15,-4.86z" fill="#CE7A63" id="svg_107"/>
      <polygon fill="#14365B" id="svg_108" points="268.086,188.96 261.834,199.471 258.776,196.585 264.556,186.065     "/>
      <path d="m254.4,175.88c3.6,-0.06 12.34,10.26 12.34,10.26l-7.6,13.23c0,0 -9.68,-8.53 -9.67,-13.2c0.01,-4.87 0.83,-10.22 4.93,-10.29z" fill="#0053CC" id="svg_109"/>
      <path d="m341.82,375.87c-0.25,0 -0.51,-0.1 -0.76,-0.29c-0.27,-0.2 -0.31,-0.45 -0.29,-0.62c0.09,-1.08 2.8,-2.5 3.1,-2.66c0.07,-0.03 0.16,-0.02 0.22,0.03c0.06,0.05 0.09,0.13 0.07,0.21c-0.31,1.08 -0.99,2.94 -2.01,3.27c-0.11,0.04 -0.22,0.06 -0.33,0.06zm1.81,-2.98c-1.06,0.6 -2.41,1.54 -2.46,2.1c-0.01,0.08 0,0.17 0.14,0.27c0.25,0.2 0.48,0.25 0.72,0.18c0.55,-0.19 1.13,-1.13 1.6,-2.55z" fill="#407BFF" id="svg_110"/>
      <path d="m341.45,373.25c-0.53,0 -0.99,-0.09 -1.25,-0.31c-0.14,-0.12 -0.35,-0.39 -0.16,-0.86c0.12,-0.3 0.34,-0.5 0.65,-0.61c1.16,-0.39 3.28,0.78 3.37,0.84c0.07,0.03 0.11,0.1 0.11,0.17c0,0.07 -0.04,0.14 -0.1,0.17c-0.51,0.31 -1.67,0.6 -2.62,0.6zm-0.21,-1.46c-0.15,0 -0.3,0.02 -0.42,0.06c-0.2,0.07 -0.33,0.19 -0.41,0.38c-0.1,0.24 -0.03,0.34 0.05,0.41c0.45,0.38 2.11,0.22 3.06,-0.17c-0.59,-0.29 -1.57,-0.68 -2.28,-0.68z" fill="#407BFF" id="svg_111"/>
      <path d="m248.86,407.4c-0.78,0 -1.5,-0.12 -1.96,-0.47c-0.31,-0.24 -0.49,-0.56 -0.51,-0.96c-0.02,-0.3 0.13,-0.47 0.25,-0.55c0.91,-0.62 4.33,0.94 5,1.25c0.08,0.04 0.12,0.12 0.11,0.21c-0.01,0.08 -0.07,0.15 -0.15,0.17c-0.73,0.16 -1.78,0.35 -2.74,0.35zm-1.6,-1.73c-0.17,0 -0.31,0.02 -0.39,0.08c-0.05,0.03 -0.09,0.08 -0.08,0.19c0.02,0.28 0.13,0.5 0.35,0.67c0.79,0.59 2.67,0.37 3.77,0.17c-1.24,-0.53 -2.85,-1.11 -3.65,-1.11z" fill="#407BFF" id="svg_112"/>
      <path d="m251.56,407.06c-0.03,0 -0.06,-0.01 -0.08,-0.02c-1.13,-0.46 -3.41,-2.29 -3.28,-3.24c0.02,-0.2 0.17,-0.46 0.68,-0.53c1.99,-0.26 2.84,3.39 2.87,3.54c0.02,0.07 -0.01,0.15 -0.06,0.2c-0.04,0.03 -0.09,0.05 -0.13,0.05zm-2.5,-3.4c-0.04,0 -0.09,0 -0.13,0.01c-0.21,0.02 -0.33,0.09 -0.34,0.19c-0.07,0.54 1.5,1.99 2.66,2.62c-0.27,-0.87 -0.99,-2.82 -2.19,-2.82z" fill="#407BFF" id="svg_113"/>
      <path d="m222,155.66l-1.68,-0.27c0,0 0.99,1.17 1.68,0.27z" fill="#0F264C" id="svg_114"/>
     </g>
     <g id="svg_115">
      <path d="m159.44,85.78c-1.77,2.22 -11.52,4.83 -19.27,4.11c-2.67,17.52 6.66,37.69 6.66,37.69s20.25,-2.41 20.75,-10.75c0.5,-8.33 -8.14,-31.05 -8.14,-31.05z" fill="#77B3FC" id="svg_116"/>
      <path d="m312.73,72.45c1.81,2.55 11.01,5.08 18.11,3.76c3.81,20.74 -3.25,45.38 -3.25,45.38s-18.87,-1.68 -19.98,-11.59c-1.1,-9.92 5.12,-37.55 5.12,-37.55z" fill="#77B3FC" id="svg_117"/>
      <path d="m180.01,252.07l0,0c-0.61,0.09 -1.17,-0.34 -1.26,-0.94l-23.8,-168.47c-0.09,-0.61 0.34,-1.17 0.95,-1.26l0,0c0.6,-0.08 1.17,0.34 1.25,0.95l23.81,168.46c0.08,0.61 -0.34,1.17 -0.95,1.26z" fill="#0053CC" id="svg_118"/>
      <path d="m293.17,239.55l0,0c0.61,0.08 1.17,-0.34 1.26,-0.95l23.8,-168.46c0.09,-0.61 -0.33,-1.17 -0.94,-1.26l0,0c-0.61,-0.08 -1.17,0.34 -1.26,0.95l-23.8,168.46c-0.09,0.61 0.34,1.17 0.94,1.26z" fill="#0053CC" id="svg_119"/>
      <path d="m154.06,86.22l4.49,33.08c0.12,0.89 1,1.46 1.86,1.21c10.06,-2.88 65.97,-17.24 151.93,-8.1c0.76,0.08 1.46,-0.42 1.6,-1.17c1.62,-8.38 4.41,-32.25 5.12,-38.36c0.09,-0.8 -0.48,-1.52 -1.28,-1.63c-11.54,-1.46 -90.31,-10.19 -162.72,13.37c-0.68,0.22 -1.1,0.9 -1,1.6z" fill="#9FC6FF" id="svg_120"/>
      <g id="svg_121">
       <path d="m168.48,91.95l4.74,-0.96l3.35,8.71l0.85,-9.56l4.73,-0.96l4.15,8.54l0.06,-9.39l4.72,-0.96l-0.62,16.9l-4.89,1l-4.69,-9.61l-0.97,10.75l-4.9,1l-6.53,-15.46z" fill="#FFFFFF" id="svg_122"/>
       <path d="m193.4,87.12l13.49,-1.98l0.44,3.48l-8.44,1.24l0.33,2.6l7.83,-1.15l0.42,3.33l-7.83,1.15l0.4,3.22l8.69,-1.27l0.47,3.69l-13.74,2.02l-2.06,-16.33z" fill="#FFFFFF" id="svg_123"/>
       <path d="m210.32,84.73l5.06,-0.55l1.08,12.37l7.89,-0.85l0.36,4.04l-12.95,1.4l-1.44,-16.41z" fill="#FFFFFF" id="svg_124"/>
       <path d="m237.06,92.06l4.51,1.03c-0.23,1.27 -0.65,2.35 -1.24,3.24c-0.6,0.88 -1.37,1.57 -2.3,2.07c-0.92,0.49 -2.12,0.79 -3.59,0.9c-1.78,0.12 -3.25,-0.03 -4.41,-0.47c-1.16,-0.44 -2.18,-1.29 -3.07,-2.54c-0.89,-1.25 -1.38,-2.9 -1.49,-4.94c-0.14,-2.72 0.48,-4.87 1.84,-6.43c1.37,-1.57 3.38,-2.45 6.02,-2.64c2.06,-0.14 3.71,0.16 4.93,0.91c1.23,0.76 2.17,1.98 2.84,3.68l-4.43,1.32c-0.18,-0.49 -0.36,-0.85 -0.55,-1.07c-0.3,-0.37 -0.66,-0.64 -1.08,-0.82c-0.42,-0.18 -0.89,-0.25 -1.39,-0.22c-1.15,0.09 -2.01,0.61 -2.57,1.58c-0.43,0.72 -0.61,1.82 -0.53,3.3c0.09,1.82 0.43,3.05 1.02,3.69c0.59,0.64 1.38,0.92 2.38,0.85c0.97,-0.07 1.69,-0.4 2.16,-0.98c0.46,-0.58 0.78,-1.4 0.95,-2.46z" fill="#FFFFFF" id="svg_125"/>
       <path d="m243.42,90.16c-0.03,-2.7 0.68,-4.82 2.16,-6.37c1.47,-1.55 3.54,-2.37 6.21,-2.45c2.73,-0.09 4.85,0.58 6.35,2c1.49,1.43 2.26,3.47 2.3,6.12c0.02,1.93 -0.28,3.53 -0.91,4.78c-0.63,1.26 -1.55,2.25 -2.77,2.97c-1.21,0.73 -2.73,1.12 -4.55,1.18c-1.85,0.06 -3.39,-0.19 -4.61,-0.74c-1.22,-0.55 -2.22,-1.46 -2.99,-2.72c-0.77,-1.25 -1.16,-2.85 -1.19,-4.77zm5.08,-0.15c0.02,1.67 0.34,2.85 0.97,3.56c0.62,0.71 1.46,1.04 2.53,1.01c1.09,-0.03 1.92,-0.42 2.51,-1.15c0.59,-0.73 0.87,-2.02 0.85,-3.87c-0.02,-1.55 -0.35,-2.68 -0.98,-3.37c-0.63,-0.7 -1.48,-1.03 -2.55,-0.99c-1.02,0.03 -1.84,0.42 -2.45,1.17c-0.61,0.75 -0.91,1.96 -0.88,3.64z" fill="#FFFFFF" id="svg_126"/>
       <path d="m263.51,81.29l6.67,0.05l2.3,10.07l2.83,-10.03l6.67,0.06l-0.45,16.5l-4.16,-0.03l0.35,-12.59l-3.55,12.56l-3.76,-0.03l-2.85,-12.61l-0.34,12.59l-4.16,-0.04l0.45,-16.5z" fill="#FFFFFF" id="svg_127"/>
       <path d="m285.64,81.58l13.57,0.61l-0.22,3.52l-8.5,-0.38l-0.17,2.62l7.89,0.35l-0.22,3.36l-7.88,-0.35l-0.21,3.25l8.75,0.39l-0.24,3.74l-13.82,-0.61l1.05,-16.5z" fill="#FFFFFF" id="svg_128"/>
      </g>
     </g>
    </g>
   </g>
  </g>
 </g>
</svg>