<svg xmlns="http://www.w3.org/2000/svg" version="1.1" xmlns:xlink="http://www.w3.org/1999/xlink" xmlns:svgjs="http://svgjs.com/svgjs" width="1000" height="1000"><rect width="1000" height="1000" rx="200" ry="200" fill="#407bff"></rect><g transform="matrix(3.58974358974359,0,0,3.58974358974359,220.21182801784613,148.9174682375712)"><svg xmlns="http://www.w3.org/2000/svg" version="1.1" xmlns:xlink="http://www.w3.org/1999/xlink" xmlns:svgjs="http://svgjs.com/svgjs" width="156" height="195"><svg width="156" height="195" viewBox="0 0 156 195" fill="none" xmlns="http://www.w3.org/2000/svg">
<path fill-rule="evenodd" clip-rule="evenodd" d="M107.019 0.916016C110.424 0.916102 113.769 1.81256 116.718 3.5153C119.668 5.21803 122.117 7.66705 123.819 10.6162H136.119C141.264 10.6162 146.199 12.6602 149.837 16.2985C153.476 19.9367 155.52 24.8713 155.52 30.0166V146.419C155.52 159.282 150.41 171.619 141.314 180.714C132.218 189.81 119.882 194.92 107.019 194.92H19.7168C14.5715 194.92 9.63693 192.876 5.99865 189.238C2.36037 185.599 0.316406 180.665 0.316406 175.52V30.0166C0.316406 24.8713 2.36037 19.9367 5.99865 16.2985C9.63693 12.6602 14.5715 10.6162 19.7168 10.6162H32.0166C33.7193 7.66705 36.1683 5.21803 39.1175 3.5153C42.0666 1.81256 45.412 0.916102 48.8174 0.916016H107.019ZM105.311 72.4938L64.1631 113.652L50.4373 99.9259C48.6078 98.1589 46.1576 97.1812 43.6142 97.2033C41.0708 97.2254 38.6379 98.2456 36.8394 100.044C35.0409 101.843 34.0207 104.275 33.9986 106.819C33.9765 109.362 34.9543 111.813 36.7212 113.642L56.6066 133.537C57.5975 134.528 58.774 135.315 60.0689 135.851C61.3638 136.388 62.7517 136.664 64.1534 136.664C65.555 136.664 66.943 136.388 68.2379 135.851C69.5328 135.315 70.7093 134.528 71.7001 133.537L119.037 86.2098C119.938 85.3086 120.652 84.2388 121.139 83.0615C121.626 81.8842 121.877 80.6225 121.876 79.3484C121.876 78.0743 121.625 76.8127 121.137 75.6358C120.649 74.4588 119.934 73.3895 119.032 72.4889C118.131 71.5883 117.061 70.874 115.884 70.3869C114.707 69.8997 113.445 69.6492 112.171 69.6496C110.897 69.6501 109.635 69.9015 108.458 70.3895C107.281 70.8775 106.212 71.5925 105.311 72.4938ZM102.168 20.3164H53.6675C52.5323 20.316 51.433 20.7138 50.5609 21.4406C49.6888 22.1673 49.0993 23.1769 48.895 24.2935L48.8174 25.1665V34.8667C48.817 36.0019 49.2148 37.1012 49.9415 37.9733C50.6683 38.8453 51.6778 39.4349 52.7945 39.6392L53.6675 39.7168H102.168C103.304 39.7172 104.403 39.3194 105.275 38.5926C106.147 37.8659 106.737 36.8563 106.941 35.7397L107.019 34.8667V25.1665C107.019 24.0313 106.621 22.932 105.894 22.0599C105.168 21.1879 104.158 20.5983 103.041 20.394L102.168 20.3164Z" fill="white"></path>
</svg></svg></g></svg>